<svg xmlns="http://www.w3.org/2000/svg" width="64" height="64" viewBox="0 0 64 64">
  <path fill="currentColor" fill-rule="evenodd" clip-rule="evenodd" d="M 4.312 5.871 C 3.328 7.448, 3.560 8.078, 5.789 9.871 C 7.244 11.042, 8.730 12, 9.092 12 C 9.454 12, 10.439 13.423, 11.282 15.163 C 12.454 17.583, 12.550 18.747, 11.691 20.123 C 10.855 21.462, 10.878 22.775, 11.785 25.281 C 12.453 27.129, 13.007 30.185, 13.015 32.071 C 13.031 35.767, 14.886 40.206, 16.490 40.388 C 17.035 40.450, 17.745 39.150, 18.069 37.500 C 18.392 35.850, 18.591 37.755, 18.511 41.734 C 18.431 45.713, 18.058 49.275, 17.683 49.651 C 16.064 51.270, 17.195 51.918, 19.269 50.560 C 20.889 49.498, 22.223 46.629, 23.936 40.520 L 26.335 31.966 28.668 34.158 L 31 36.349 33.314 34.174 C 34.587 32.978, 36.136 32, 36.755 32 C 37.375 32, 38.207 31.474, 38.605 30.830 C 39.104 30.023, 38.763 29.877, 37.509 30.358 C 36.301 30.822, 34.901 30.316, 33.345 28.854 L 31 26.651 28.500 29 L 26 31.349 26 27.174 C 26 23.228, 27.134 21.789, 28.500 24 C 29.967 26.373, 34.775 24.220, 44.500 16.833 C 46.381 15.405, 46.986 15.200, 46.122 16.284 C 44.921 17.791, 45.086 18.532, 47.404 22.034 L 50.064 26.054 47.282 25.444 C 45.752 25.108, 43.982 24.677, 43.349 24.486 C 42.715 24.295, 41.913 25.120, 41.567 26.319 C 40.967 28.394, 40.865 28.355, 39.462 25.500 L 37.989 22.500 38.568 25.467 C 38.886 27.099, 39.337 29.919, 39.570 31.734 C 40.140 36.187, 46.685 49, 48.390 49 C 49.141 49, 50.270 49.620, 50.899 50.378 C 51.803 51.467, 51.567 51.883, 49.771 52.364 C 48.522 52.699, 45.881 52.979, 43.902 52.986 C 40.697 52.999, 40.116 52.584, 38.587 49.194 C 37.643 47.100, 36.236 42.938, 35.461 39.944 L 34.051 34.500 34.519 39.341 C 34.776 42.003, 35.879 46.200, 36.971 48.666 C 39.582 54.570, 37.310 53.977, 34.220 47.949 C 31.949 43.517, 31.943 43.513, 32.586 47 C 32.941 48.925, 33.640 51.010, 34.141 51.633 C 35.446 53.258, 32.443 54.174, 28.335 53.403 C 25.423 52.857, 25.037 52.462, 25.624 50.633 C 27.072 46.123, 27.949 41.381, 27.869 38.500 C 27.803 36.108, 27.602 36.412, 26.878 40 C 24.889 49.861, 23.997 51.963, 21.535 52.581 C 20.220 52.911, 18.212 52.885, 17.072 52.523 C 15.839 52.131, 15 52.308, 15 52.958 C 15 53.609, 17.323 54.094, 20.750 54.158 C 31.609 54.360, 43.508 54.066, 49.897 53.438 L 56.294 52.809 53.397 50.441 C 51.804 49.138, 49.989 48.056, 49.365 48.036 C 47.833 47.987, 44.801 43.241, 45.877 42.576 C 46.902 41.942, 46.105 37, 44.977 37 C 44.543 37, 44.383 38.013, 44.622 39.250 C 45.009 41.255, 44.938 41.228, 43.968 39 C 43.024 36.831, 43.226 36.203, 45.496 34.250 C 46.934 33.013, 47.636 32, 47.056 32 C 46.475 32, 46 31.352, 46 30.559 C 46 29.766, 45.532 28.829, 44.960 28.475 C 44.304 28.070, 44.117 28.695, 44.454 30.166 C 44.994 32.524, 42.572 36.906, 41.385 35.719 C 40.118 34.451, 40.792 29.888, 42.530 27.967 C 44.445 25.851, 47.491 25.367, 48.510 27.016 C 48.856 27.575, 49.560 27.772, 50.076 27.453 C 50.592 27.134, 51.269 27.689, 51.580 28.687 C 51.891 29.684, 52.567 31.288, 53.081 32.250 C 53.685 33.378, 53.659 34, 53.008 34 C 52.454 34, 52 34.450, 52 35 C 52 35.550, 52.912 36, 54.026 36 C 55.968 36, 55.986 35.873, 54.452 32.907 C 53.572 31.206, 53.090 29.577, 53.380 29.287 C 53.670 28.996, 52.321 26.682, 50.383 24.142 C 47.056 19.785, 46.854 18.885, 48.113 14 C 48.378 12.975, 47.599 12.397, 45.653 12.174 C 43.414 11.918, 42.913 11.442, 43.304 9.945 C 43.661 8.582, 42.873 7.467, 40.533 6.020 C 38.735 4.909, 37.042 4, 36.771 4 C 36.499 4, 36.498 5.154, 36.768 6.565 C 37.121 8.413, 36.663 9.548, 35.129 10.622 C 33.646 11.661, 33 13.176, 33 15.616 C 33 17.589, 33.417 18.860, 33.956 18.527 C 34.482 18.202, 34.672 17.308, 34.377 16.541 C 33.991 15.535, 34.421 15.297, 35.921 15.690 C 37.568 16.120, 38 15.769, 38 14 C 38 12.259, 37.559 11.882, 35.999 12.290 C 34.898 12.578, 34.249 12.405, 34.558 11.907 C 34.866 11.408, 35.718 11, 36.452 11 C 38.047 11, 39.275 8.253, 38.349 6.755 C 37.948 6.107, 38.169 5.986, 38.914 6.447 C 39.586 6.862, 39.895 7.832, 39.600 8.601 C 39.304 9.371, 39.461 10, 39.948 10 C 40.435 10, 41.060 9.437, 41.338 8.750 C 41.673 7.919, 41.869 8.020, 41.921 9.050 C 41.964 9.903, 41.460 11.140, 40.800 11.800 C 39.867 12.733, 40.367 13.007, 43.050 13.030 L 46.500 13.060 42 17 C 39.525 19.167, 37.050 20.942, 36.500 20.943 C 35.950 20.945, 36.967 19.721, 38.759 18.223 C 40.551 16.725, 42.014 15.078, 42.009 14.563 C 42.004 14.048, 40.763 14.745, 39.250 16.113 C 33.700 21.133, 32.952 21.518, 31.829 19.936 C 31.008 18.778, 30.920 18.839, 31.374 20.250 C 32.328 23.214, 30.327 22.200, 26.578 17.820 C 24.610 15.521, 23 13.945, 23 14.317 C 23 14.690, 24.627 16.796, 26.616 18.997 C 28.605 21.199, 29.765 23, 29.194 23 C 28.623 23, 26.535 21.106, 24.553 18.791 L 20.950 14.582 23.462 13.266 C 24.844 12.542, 26.267 10.723, 26.625 9.225 C 26.983 7.726, 27.773 5.873, 28.380 5.106 C 29.288 3.959, 29.041 3.848, 26.992 4.480 C 25.621 4.903, 24.319 5.411, 24.097 5.610 C 23.876 5.809, 23.733 7.328, 23.781 8.986 C 23.835 10.917, 23.373 12, 22.492 12 C 20.388 12, 19.784 13.727, 21.057 16.106 C 21.893 17.668, 21.911 18.900, 21.124 20.626 C 20.530 21.932, 19.557 23, 18.962 23 C 18.368 23, 18.124 22.608, 18.420 22.129 C 19.052 21.106, 15.555 16.778, 14.749 17.585 C 14.447 17.886, 13.861 17.584, 13.446 16.912 C 12.963 16.132, 13.108 15.949, 13.845 16.405 C 14.549 16.839, 15.030 16.412, 15.077 15.309 C 15.119 14.314, 15.362 12.715, 15.618 11.756 C 17.010 6.533, 17.153 4, 16.054 4 C 15.410 4, 15.162 4.453, 15.504 5.006 C 16.508 6.631, 13.750 13.001, 12.049 12.985 C 10.684 12.971, 10.678 12.854, 12 12 C 13.231 11.205, 13.123 11.028, 11.403 11.015 C 10.250 11.007, 8.276 10.107, 7.018 9.015 C 5.126 7.374, 4.947 6.768, 5.987 5.515 C 6.679 4.682, 6.848 4, 6.363 4 C 5.878 4, 4.955 4.842, 4.312 5.871 M 7.838 5 C 6.409 8.775, 11.328 11.720, 13.895 8.627 C 15.465 6.735, 14.213 4, 11.776 4 C 10.156 4, 9.862 4.499, 10.259 6.576 C 10.530 7.993, 10.401 8.780, 9.973 8.326 C 9.545 7.872, 9.017 6.600, 8.800 5.500 C 8.497 3.962, 8.274 3.847, 7.838 5 M 29.117 6.184 C 28.198 7.656, 28.142 8.542, 28.918 9.318 C 29.513 9.913, 30.007 9.973, 30.015 9.450 C 30.024 8.928, 30.467 9.175, 31 10 C 31.704 11.090, 31.974 11.142, 31.985 10.191 C 31.993 9.471, 32.453 9.162, 33.007 9.504 C 34.612 10.497, 35.337 7.185, 33.823 5.776 C 31.732 3.830, 30.522 3.935, 29.117 6.184 M 46 5 C 46 5.550, 46.423 6, 46.941 6 C 47.459 6, 48.160 5.550, 48.500 5 C 48.840 4.450, 48.416 4, 47.559 4 C 46.702 4, 46 4.450, 46 5 M 51 5.500 C 51 6.333, 51.889 7, 53 7 C 54.111 7, 55 6.333, 55 5.500 C 55 4.667, 54.111 4, 53 4 C 51.889 4, 51 4.667, 51 5.500 M 11 5.941 C 11 6.459, 11.450 7.160, 12 7.500 C 12.550 7.840, 13 7.416, 13 6.559 C 13 5.702, 12.550 5, 12 5 C 11.450 5, 11 5.423, 11 5.941 M 52 5.500 C 52 5.775, 52.225 6, 52.500 6 C 52.775 6, 53 5.775, 53 5.500 C 53 5.225, 52.775 5, 52.500 5 C 52.225 5, 52 5.225, 52 5.500 M 29.349 7.244 C 28.980 7.842, 29.160 8.019, 29.760 7.648 C 30.348 7.285, 31.057 7.553, 31.336 8.244 C 31.728 9.217, 31.860 9.206, 31.921 8.191 C 31.967 7.435, 32.528 7.186, 33.250 7.601 C 33.938 7.997, 34.149 7.935, 33.721 7.465 C 32.541 6.168, 30.091 6.044, 29.349 7.244 M 25 8.500 C 25 8.775, 25.225 9, 25.500 9 C 25.775 9, 26 8.775, 26 8.500 C 26 8.225, 25.775 8, 25.500 8 C 25.225 8, 25 8.225, 25 8.500 M 52.639 9.694 C 51.513 10.820, 51.954 12, 53.500 12 C 54.325 12, 55 11.577, 55 11.059 C 55 9.798, 53.438 8.895, 52.639 9.694 M 26.410 12.502 C 26.005 14.118, 26.228 15.604, 26.986 16.323 C 27.958 17.247, 28.084 17.034, 27.572 15.334 C 27.190 14.067, 27.415 12.862, 28.114 12.430 C 28.798 12.007, 29.047 12.114, 28.697 12.681 C 28.360 13.226, 28.493 14.983, 28.992 16.586 C 29.812 19.217, 29.880 19.070, 29.700 15.078 C 29.475 10.092, 27.419 8.482, 26.410 12.502 M 36 14 C 36 14.733, 36.300 15.033, 36.667 14.667 C 37.033 14.300, 37.033 13.700, 36.667 13.333 C 36.300 12.967, 36 13.267, 36 14 M 13 14.500 C 13 14.775, 13.225 15, 13.500 15 C 13.775 15, 14 14.775, 14 14.500 C 14 14.225, 13.775 14, 13.500 14 C 13.225 14, 13 14.225, 13 14.500 M 31.079 15.583 C 31.127 16.748, 31.364 16.985, 31.683 16.188 C 31.972 15.466, 31.936 14.603, 31.604 14.271 C 31.272 13.939, 31.036 14.529, 31.079 15.583 M 55 15 C 55 15.550, 55.450 16, 56 16 C 56.550 16, 57 15.550, 57 15 C 57 14.450, 56.550 14, 56 14 C 55.450 14, 55 14.450, 55 15 M 52 17 C 52 17.550, 52.450 18, 53 18 C 53.550 18, 54 17.550, 54 17 C 54 16.450, 53.550 16, 53 16 C 52.450 16, 52 16.450, 52 17 M 22.126 20.764 C 21.388 22.143, 21.437 23.065, 22.297 23.994 C 23.246 25.019, 23.214 25.131, 22.143 24.521 C 21.094 23.925, 20.947 24.290, 21.496 26.125 C 22.187 28.435, 22.165 28.445, 20.685 26.502 C 19.848 25.402, 18.901 24.765, 18.581 25.086 C 18.261 25.406, 18.464 27.880, 19.034 30.584 C 20.353 36.843, 20.698 38.906, 20.943 42 C 21.115 44.173, 21.328 43.989, 22.570 40.601 C 23.355 38.457, 24.255 33.751, 24.568 30.144 C 24.881 26.537, 25.292 23.337, 25.480 23.032 C 25.669 22.727, 25.223 21.658, 24.491 20.656 C 23.208 18.902, 23.121 18.906, 22.126 20.764 M 12.667 20.667 C 11.637 21.696, 11.872 23.443, 13.303 25.399 C 14.552 27.108, 14.664 27.108, 16.053 25.398 C 16.943 24.302, 17.019 23.905, 16.250 24.367 C 15.563 24.780, 15 24.679, 15 24.142 C 15 23.606, 15.563 22.940, 16.250 22.662 C 16.938 22.385, 16.600 22.115, 15.500 22.064 C 13.836 21.985, 13.752 21.807, 15 21 C 16.314 20.151, 16.304 20.029, 14.917 20.015 C 14.046 20.007, 13.033 20.300, 12.667 20.667 M 32 22.500 C 30.398 23.416, 30.060 23.942, 31.059 23.965 C 31.916 23.984, 33.491 23.339, 34.559 22.532 C 37.045 20.652, 35.272 20.630, 32 22.500 M 16 28 C 16 28.733, 16.300 29.033, 16.667 28.667 C 17.033 28.300, 17.033 27.700, 16.667 27.333 C 16.300 26.967, 16 27.267, 16 28 M 29.250 29.496 C 27.633 31.332, 27.671 32.482, 29.394 33.912 C 30.472 34.807, 31.163 34.694, 32.441 33.416 C 33.979 31.878, 33.976 31.631, 32.392 29.881 C 31.456 28.847, 30.647 28.017, 30.595 28.038 C 30.543 28.059, 29.938 28.715, 29.250 29.496 M 14.423 33 C 14.797 35.475, 15.552 37.950, 16.102 38.500 C 16.769 39.167, 16.876 38, 16.423 35 C 16.050 32.525, 15.294 30.050, 14.744 29.500 C 14.078 28.833, 13.971 30, 14.423 33 M 49.545 32.031 C 49.865 33.939, 50.268 36.238, 50.441 37.139 C 50.614 38.041, 50.367 39.391, 49.893 40.139 C 49.261 41.136, 49.027 40.898, 49.015 39.250 C 49.007 38.013, 48.611 37, 48.137 37 C 46.934 37, 47.275 40.102, 48.741 42.500 C 49.797 44.227, 50.107 44.295, 51.015 43 C 52.210 41.294, 51.359 31.050, 49.896 29.531 C 49.315 28.928, 49.182 29.872, 49.545 32.031 M 17.158 32 C 17.158 33.375, 17.385 33.938, 17.662 33.250 C 17.940 32.563, 17.940 31.438, 17.662 30.750 C 17.385 30.063, 17.158 30.625, 17.158 32 M 29.500 31 C 28.684 32.320, 29.880 34.192, 31.069 33.457 C 32.284 32.707, 32.276 30, 31.059 30 C 30.541 30, 29.840 30.450, 29.500 31 M 30 31.500 C 30 31.775, 30.225 32, 30.500 32 C 30.775 32, 31 31.775, 31 31.500 C 31 31.225, 30.775 31, 30.500 31 C 30.225 31, 30 31.225, 30 31.500 M 21.345 33.543 C 20.415 35.967, 21.713 36.405, 22.954 34.086 C 23.728 32.639, 23.743 32, 23.004 32 C 22.417 32, 21.671 32.694, 21.345 33.543 M 19.199 42.500 C 19.199 43.600, 19.560 45.625, 20 47 C 20.634 48.980, 20.801 49.084, 20.801 47.500 C 20.801 46.400, 20.440 44.375, 20 43 C 19.366 41.020, 19.199 40.916, 19.199 42.500 M 40 42.882 C 40 43.432, 40.450 44.160, 41 44.500 C 41.550 44.840, 42 44.668, 42 44.118 C 42 43.568, 41.550 42.840, 41 42.500 C 40.450 42.160, 40 42.332, 40 42.882 M 42 49.500 C 42 49.775, 42.225 50, 42.500 50 C 42.775 50, 43 49.775, 43 49.500 C 43 49.225, 42.775 49, 42.500 49 C 42.225 49, 42 49.225, 42 49.500"/>
</svg>
