<svg xmlns="http://www.w3.org/2000/svg" width="64" height="64" viewBox="0 0 64 64">
  <path fill="currentColor" fill-rule="evenodd" clip-rule="evenodd" d="M 35.225 7.709 C 33.974 7.949, 32.222 9.258, 31.331 10.618 C 29.981 12.678, 29.902 13.728, 30.855 16.911 C 32.370 21.967, 32.325 22.238, 30.084 21.527 C 29.030 21.192, 27.879 21.387, 27.525 21.959 C 27.171 22.532, 27.385 23, 28 23 C 28.615 23, 28.840 23.450, 28.500 24 C 28.160 24.550, 28.359 25, 28.941 25 C 29.523 25, 30 25.675, 30 26.500 C 30 27.325, 29.460 28, 28.800 28 C 27.971 28, 27.921 28.321, 28.637 29.037 C 29.353 29.753, 30.552 29.741, 32.510 28.996 C 34.826 28.116, 35.636 28.226, 36.923 29.601 C 38.364 31.139, 38.352 31.232, 36.782 30.686 C 35.837 30.357, 34.785 30.540, 34.443 31.092 C 34.039 31.746, 33.328 31.687, 32.411 30.926 C 31.397 30.084, 31 30.071, 31 30.878 C 31 31.495, 31.466 32, 32.035 32 C 32.743 32, 32.748 32.602, 32.053 33.901 C 31.359 35.198, 31.369 36.761, 32.086 38.816 C 32.980 41.381, 32.812 42.201, 30.958 44.333 C 29.760 45.711, 27.704 47.108, 26.390 47.438 C 23.324 48.208, 23.359 49.534, 26.500 51.592 C 29.269 53.406, 29.771 55, 27.572 55 C 26.787 55, 25.039 53.587, 23.688 51.861 L 21.232 48.722 23.215 45.361 C 24.305 43.512, 25.678 42, 26.265 42 C 26.853 42, 27.044 41.711, 26.691 41.357 C 26.337 41.004, 25.362 41.284, 24.524 41.980 C 21.944 44.121, 22.636 39.882, 25.500 36 C 26.875 34.136, 27.986 32.136, 27.970 31.556 C 27.953 30.975, 27.429 31.400, 26.805 32.500 C 24.979 35.719, 21.103 38.976, 20.418 37.867 C 20.077 37.315, 19.168 37.105, 18.399 37.400 C 17.629 37.696, 17 37.501, 17 36.969 C 17 36.436, 17.439 36, 17.975 36 C 18.600 36, 18.586 35.042, 17.938 33.337 C 17.248 31.521, 17.256 30.344, 17.963 29.637 C 18.533 29.067, 18.971 27.677, 18.937 26.550 C 18.877 24.629, 18.816 24.643, 17.961 26.772 C 17.459 28.022, 16.250 29.350, 15.274 29.724 C 14.298 30.097, 12.744 31.325, 11.821 32.451 C 10.429 34.149, 9.916 34.274, 8.821 33.179 C 8.001 32.359, 7.937 31.979, 8.650 32.179 C 9.283 32.355, 9.800 32.050, 9.800 31.500 C 9.800 30.950, 9.421 30.604, 8.959 30.730 C 8.221 30.932, 8.980 27.649, 10.746 23 C 11.059 22.175, 11.226 20.945, 11.118 20.266 C 11.005 19.565, 11.547 19.273, 12.372 19.589 C 13.248 19.925, 14.012 19.423, 14.297 18.323 C 14.610 17.113, 14.807 17.424, 14.884 19.250 C 14.948 20.762, 15.450 22, 16 22 C 18.092 22, 18.554 22.189, 20.465 23.821 C 21.545 24.745, 21.208 24.003, 19.715 22.173 C 18.222 20.344, 17 18.356, 17 17.757 C 17 17.157, 17.271 16.938, 17.603 17.269 C 17.934 17.601, 19.263 17.470, 20.555 16.979 C 22.448 16.260, 22.793 16.377, 22.329 17.584 C 22.013 18.408, 22.147 19.010, 22.627 18.922 C 23.107 18.835, 24.400 18.823, 25.500 18.897 C 27.188 19.010, 27.266 19.193, 26 20.069 C 24.750 20.934, 24.820 21.057, 26.417 20.804 C 29.351 20.339, 29.404 18.318, 26.503 17.590 C 25.081 17.233, 24.168 16.536, 24.474 16.042 C 24.781 15.545, 22.515 15.189, 19.416 15.247 C 15.640 15.318, 13.629 15.804, 13.272 16.734 C 12.980 17.493, 12.125 17.878, 11.371 17.589 C 10.439 17.231, 10 17.850, 10 19.521 C 10 20.872, 9.164 24.179, 8.142 26.868 C 6.124 32.179, 6.743 35, 9.928 35 C 10.933 35, 12.443 33.987, 13.283 32.750 C 14.505 30.948, 15.065 30.747, 16.095 31.740 C 17.140 32.748, 17.069 33.632, 15.715 36.472 C 14.799 38.393, 14.298 40.613, 14.602 41.406 C 14.923 42.241, 14.283 43.314, 13.078 43.958 C 11.935 44.570, 11 45.854, 11 46.812 C 11 49.368, 16.539 55, 19.052 55 C 20.897 55, 21.125 54.594, 20.596 52.250 L 19.976 49.500 22.238 52.122 C 24.929 55.240, 28.656 57.331, 30.021 56.487 C 31.617 55.500, 31.157 54.050, 28.451 51.542 C 27.048 50.242, 26.261 48.986, 26.701 48.749 C 28.409 47.830, 33.046 48.732, 34.807 50.325 C 35.825 51.246, 37.129 52, 37.706 52 C 38.283 52, 39.315 52.675, 40 53.500 C 40.685 54.325, 41.865 55, 42.622 55 C 45.409 55, 43.864 53.441, 38.896 51.239 C 35.346 49.666, 33.963 48.538, 34.349 47.532 C 34.797 46.365, 34.420 46.270, 32.395 47.040 C 29.700 48.065, 29.804 47.246, 32.817 43.739 C 34.025 42.333, 34.117 41.288, 33.275 38.544 C 32.386 35.647, 32.503 34.855, 34.027 33.475 C 35.486 32.155, 36.251 32.064, 38.002 33.001 C 39.195 33.640, 39.919 34.415, 39.610 34.724 C 39.301 35.032, 38.328 34.687, 37.448 33.957 C 36.111 32.847, 35.698 32.865, 34.939 34.064 C 33.672 36.067, 33.748 36.537, 35.919 40.106 C 36.974 41.842, 37.609 43.856, 37.330 44.583 C 37.051 45.310, 37.131 46.403, 37.507 47.012 C 37.964 47.750, 38.649 47.516, 39.564 46.310 C 41.198 44.155, 41.360 41.073, 39.948 39 C 39.210 37.918, 39.106 38.544, 39.574 41.250 C 40.018 43.816, 39.853 45, 39.052 45 C 38.409 45, 38.160 44.551, 38.499 44.002 C 38.838 43.453, 38.415 42.003, 37.558 40.779 C 35.120 37.299, 35.827 33.161, 38.417 35.750 C 38.829 36.163, 39.467 36.550, 39.833 36.610 C 43.693 37.249, 47 38.421, 47 39.150 C 47 39.645, 48.026 40.439, 49.279 40.916 C 50.555 41.401, 51.628 42.710, 51.717 43.889 C 51.911 46.472, 48.346 48.746, 46.693 47.093 C 45.902 46.302, 45.962 46, 46.907 46 C 47.698 46, 47.970 45.364, 47.596 44.389 C 47.153 43.236, 47.407 42.942, 48.489 43.357 C 49.320 43.676, 50 43.600, 50 43.188 C 50 42.776, 48.568 41.898, 46.818 41.238 C 44.406 40.327, 43.922 40.322, 44.818 41.218 C 46.313 42.713, 46.374 45.349, 44.893 44.434 C 43.857 43.793, 44.117 45.421, 45.744 49.750 C 46.529 51.838, 44.352 51.147, 42.593 48.750 C 41.285 46.967, 41.138 46.916, 41.885 48.500 C 42.404 49.600, 44.167 51.774, 45.804 53.332 C 49.255 56.615, 51.115 55.350, 48.563 51.456 C 47.057 49.158, 47.071 49, 48.777 49 C 51.402 49, 53 47.023, 53 43.775 C 53 41.726, 52.351 40.704, 50.636 40.052 C 47.361 38.806, 46.595 36.339, 49.267 35.640 C 50.438 35.334, 51.982 35.570, 52.698 36.164 C 53.676 36.976, 54 36.842, 54 35.622 C 54 34.730, 54.466 34, 55.035 34 C 55.737 34, 55.726 33.356, 55 32 C 54.081 30.283, 54.240 30, 56.120 30 C 58.142 30, 58.189 29.866, 56.726 28.250 C 55.855 27.287, 55.197 26.050, 55.265 25.500 C 55.332 24.950, 54.062 24.233, 52.443 23.907 C 49.422 23.299, 49.474 23.242, 54.750 21.384 C 56.171 20.883, 55.952 20.575, 53.586 19.746 C 51.493 19.012, 50.137 19.058, 48.773 19.909 C 47.729 20.562, 45.947 20.800, 44.812 20.440 C 43.433 20.003, 42.976 20.153, 43.434 20.893 C 43.810 21.502, 45.216 22, 46.559 22 C 48.062 22, 49 22.576, 49 23.500 C 49 24.325, 49.792 25, 50.759 25 C 51.727 25, 53.056 25.860, 53.712 26.911 C 54.685 28.469, 54.616 28.933, 53.340 29.423 C 52.124 29.890, 52.033 30.335, 52.933 31.419 C 53.871 32.549, 53.409 33.040, 50.507 33.998 C 47.724 34.916, 46.596 34.909, 45.461 33.968 C 43.711 32.515, 43.487 34.087, 45.200 35.800 C 46.133 36.733, 46.131 37, 45.191 37 C 44.526 37, 42.665 35.742, 41.056 34.204 C 39.115 32.349, 38.407 30.959, 38.953 30.076 C 39.472 29.236, 40.279 29.061, 41.138 29.603 C 43.036 30.801, 48.101 30.973, 47.386 29.815 C 47.063 29.293, 47.739 28.620, 48.888 28.319 C 51.589 27.613, 50.599 26, 47.464 26 C 44.918 26, 41.355 21.853, 42.420 20.129 C 42.746 19.602, 42.447 18.925, 41.756 18.625 C 41.065 18.325, 41.765 18.342, 43.311 18.663 C 45.599 19.139, 46.226 18.852, 46.678 17.124 C 46.988 15.938, 48.039 15, 49.058 15 C 51.797 15, 52.312 13.285, 49.743 12.720 C 48.509 12.449, 45.585 12.354, 43.245 12.509 C 38.960 12.794, 36.670 11.440, 39 10 C 40.228 9.241, 39.558 6.867, 38.191 7.136 C 37.811 7.211, 36.476 7.469, 35.225 7.709 M 33.757 9.576 C 32.732 10.602, 36.358 15.800, 37.731 15.273 C 38.731 14.889, 38.775 14.434, 37.914 13.396 C 37.288 12.642, 37.037 11.345, 37.357 10.513 C 37.743 9.507, 37.333 9, 36.135 9 C 35.144 9, 34.074 9.259, 33.757 9.576 M 32 13 C 32 13.550, 32.450 14, 33 14 C 33.550 14, 34 13.550, 34 13 C 34 12.450, 33.550 12, 33 12 C 32.450 12, 32 12.450, 32 13 M 43.503 13.740 C 41.855 13.982, 40.280 14.544, 40.003 14.988 C 39.726 15.432, 37.925 16.510, 36 17.385 L 32.500 18.974 36 18.372 C 37.925 18.040, 40.022 17.349, 40.661 16.836 C 41.391 16.249, 42.062 16.292, 42.470 16.951 C 43.444 18.528, 44.316 18.190, 46.297 15.469 C 47.285 14.111, 47.735 13.067, 47.297 13.150 C 46.859 13.232, 45.151 13.498, 43.503 13.740 M 32 16 C 32 16.550, 32.423 17, 32.941 17 C 33.459 17, 34.160 16.550, 34.500 16 C 34.840 15.450, 34.416 15, 33.559 15 C 32.702 15, 32 15.450, 32 16 M 36.048 19.949 C 35.249 20.455, 34.284 20.676, 33.904 20.441 C 33.524 20.206, 33.277 21.091, 33.356 22.408 C 33.471 24.314, 33.839 24.621, 35.163 23.912 C 36.077 23.423, 37.007 22.478, 37.229 21.812 C 37.483 21.050, 37.880 21.244, 38.297 22.333 C 38.782 23.594, 38.271 24.327, 36.416 25.032 C 35.016 25.564, 33.224 26, 32.435 26 C 31.646 26, 31 26.450, 31 27 C 31 28.267, 31.647 28.259, 34.066 26.965 C 35.442 26.228, 36 26.252, 36 27.048 C 36 27.663, 36.563 27.965, 37.250 27.718 C 37.938 27.472, 39.329 27.698, 40.343 28.220 C 41.357 28.743, 43.382 28.858, 44.843 28.477 L 47.500 27.785 45.206 26.908 C 43.944 26.426, 42.250 24.449, 41.442 22.516 C 39.945 18.933, 38.637 18.311, 36.048 19.949 M 49.405 21.155 C 48.962 21.870, 49.130 22.038, 49.845 21.595 C 50.998 20.883, 51.393 20, 50.559 20 C 50.316 20, 49.797 20.520, 49.405 21.155 M 12.667 24.667 C 12.300 25.033, 12 25.798, 12 26.367 C 12 26.993, 12.466 26.934, 13.183 26.217 C 13.834 25.566, 14.134 24.801, 13.850 24.517 C 13.566 24.233, 13.033 24.300, 12.667 24.667 M 30.333 24.667 C 30.700 25.033, 31.300 25.033, 31.667 24.667 C 32.033 24.300, 31.733 24, 31 24 C 30.267 24, 29.967 24.300, 30.333 24.667 M 24 26.711 C 24 27.285, 24.788 28.373, 25.750 29.128 C 27.369 30.397, 27.390 30.350, 26.033 28.500 C 25.226 27.400, 24.439 26.313, 24.283 26.083 C 24.127 25.854, 24 26.137, 24 26.711 M 21.195 32.500 C 21.215 34.150, 21.439 34.704, 21.693 33.731 C 21.947 32.758, 21.930 31.408, 21.656 30.731 C 21.382 30.054, 21.175 30.850, 21.195 32.500 M 16.525 41.334 C 16.835 42.916, 16.680 43.920, 16.174 43.607 C 15.675 43.299, 14.493 43.902, 13.547 44.948 C 11.914 46.752, 11.941 47.001, 14.066 49.875 C 16.486 53.148, 18.626 54.414, 19.459 53.066 C 19.747 52.600, 18.862 51.484, 17.491 50.586 C 14.500 48.627, 14.325 47.410, 16.935 46.727 C 18.333 46.362, 18.717 45.635, 18.319 44.111 C 18 42.894, 18.240 42, 18.883 42 C 19.498 42, 20 41.325, 20 40.500 C 20 38.383, 18.015 38.623, 17.930 40.750 C 17.869 42.261, 17.730 42.226, 16.914 40.500 C 16.146 38.874, 16.073 39.030, 16.525 41.334 M 20.719 41.615 C 19.670 42.663, 19.839 46, 20.941 46 C 22.370 46, 22.823 44.701, 22.094 42.698 C 21.733 41.707, 21.114 41.219, 20.719 41.615 M 18.166 47.876 C 17.092 48.557, 17.141 48.840, 18.416 49.329 C 19.418 49.714, 20 49.398, 20 48.469 C 20 46.769, 19.942 46.750, 18.166 47.876 M 46 48.500 C 46 48.775, 46.225 49, 46.500 49 C 46.775 49, 47 48.775, 47 48.500 C 47 48.225, 46.775 48, 46.500 48 C 46.225 48, 46 48.225, 46 48.500 M 46.638 52.500 C 46.955 53.325, 47.671 54, 48.229 54 C 48.815 54, 48.718 53.365, 48 52.500 C 47.315 51.675, 46.599 51, 46.409 51 C 46.219 51, 46.322 51.675, 46.638 52.500"/>
</svg>
