<svg xmlns="http://www.w3.org/2000/svg" width="64" height="64" viewBox="0 0 64 64">
  <path fill="currentColor" fill-rule="evenodd" clip-rule="evenodd" d="M 20.352 4.046 C 17.986 4.943, 16.284 7, 17.910 7 C 18.475 7, 18.678 7.675, 18.362 8.500 C 17.638 10.387, 18.922 10.373, 21.441 8.468 C 23.726 6.740, 25.406 6.533, 24.438 8.100 C 23.406 9.770, 27.359 7.477, 29.074 5.410 C 30.353 3.870, 30.252 3.781, 27.992 4.458 C 26.621 4.868, 24.262 5.799, 22.750 6.525 C 19.771 7.957, 18.884 6.724, 21.742 5.125 C 24.075 3.819, 23.051 3.024, 20.352 4.046 M 39.500 6.236 C 37.850 6.829, 34.738 8.421, 32.584 9.775 C 29.263 11.861, 28.921 12.376, 30.334 13.167 C 32.559 14.412, 32.462 19.272, 30.171 21.345 C 27.912 23.390, 27.333 23.422, 27.333 21.500 C 27.333 20.675, 27.678 20, 28.098 20 C 29.202 20, 28.521 15.121, 27.239 13.839 C 26.644 13.244, 26.372 12.195, 26.635 11.510 C 27.323 9.715, 23.293 8.942, 21.914 10.603 C 20.988 11.720, 21.156 12, 22.755 12 C 23.855 12, 25.190 12.563, 25.721 13.250 C 26.937 14.824, 26.403 22.365, 24.868 25.291 C 23.745 27.432, 23.770 27.446, 25.683 25.750 C 26.769 24.788, 28.115 24, 28.674 24 C 30.724 24, 33 20.249, 33 16.871 C 33 14.962, 32.655 12.973, 32.233 12.450 C 31.812 11.928, 31.623 11.574, 31.815 11.665 C 32.006 11.755, 33.764 10.743, 35.721 9.415 C 37.678 8.087, 40.229 7.020, 41.390 7.045 C 43.133 7.082, 42.979 7.329, 40.500 8.464 C 37.088 10.026, 37.639 10.468, 41.276 9.085 C 42.600 8.582, 45.002 7.962, 46.614 7.708 C 49.424 7.265, 49.545 7.404, 49.545 11.057 C 49.545 13.515, 49.183 14.580, 48.523 14.057 C 46.855 12.737, 36.708 10.062, 35.708 10.680 C 34.236 11.590, 37.212 12.968, 40.685 12.985 C 42.437 12.993, 45.137 13.482, 46.685 14.070 C 49.224 15.036, 49.323 15.240, 47.695 16.151 C 46.702 16.707, 45.464 18.280, 44.944 19.648 C 44.229 21.527, 43.514 21.981, 42.016 21.505 C 40.657 21.074, 39.242 21.667, 37.517 23.392 C 34.662 26.247, 34.176 28.530, 36.623 27.591 C 37.690 27.182, 40.097 28.548, 43.635 31.571 C 50.746 37.647, 51.517 39.175, 48.970 42.157 L 46.969 44.500 47.573 41.831 C 48.055 39.698, 47.658 38.822, 45.597 37.471 C 44.178 36.542, 43.304 35.268, 43.655 34.641 C 44.035 33.962, 43.748 34.006, 42.947 34.750 C 41.899 35.722, 41.867 36.267, 42.800 37.200 C 44.472 38.872, 44.296 40.672, 42.389 41.404 C 41.304 41.820, 40.945 41.587, 41.289 40.690 C 41.570 39.956, 40.904 38.797, 39.808 38.112 C 38.388 37.225, 37.983 36.203, 38.399 34.548 C 38.855 32.731, 38.495 32.098, 36.740 31.628 C 33.598 30.786, 33 30.852, 33 32.044 C 33 32.618, 33.741 32.955, 34.646 32.794 C 35.552 32.632, 36.464 32.987, 36.674 33.582 C 36.883 34.178, 36.030 34.628, 34.777 34.582 C 33.396 34.532, 32.013 33.516, 31.262 32 C 30.026 29.502, 30.025 29.502, 30.510 32.500 C 31.157 36.504, 28.940 42.463, 26.738 42.639 C 24.846 42.790, 24.398 41.490, 26 40.500 C 27.639 39.487, 27.128 35.704, 24.917 32.500 C 23.013 29.739, 22.906 29.699, 23.568 31.992 C 24.212 34.221, 24.115 34.340, 22.644 33.120 C 21.692 32.329, 21 30.283, 21 28.255 C 21 25.257, 20.785 24.934, 19.500 26 C 18.276 27.016, 18 26.959, 18 25.692 C 18 24.838, 19.013 23.995, 20.250 23.820 C 22.179 23.546, 22.505 22.886, 22.534 19.193 C 22.555 16.527, 23.127 14.532, 24.034 13.958 C 24.840 13.448, 25.050 13.031, 24.500 13.031 C 22.947 13.031, 21.417 14.330, 20.708 16.250 C 20.353 17.212, 19.347 18, 18.472 18 C 17.532 18, 17.171 17.532, 17.590 16.855 C 18.256 15.777, 16.599 15.855, 12.125 17.113 C 11.369 17.326, 10.523 16.875, 10.245 16.111 C 9.898 15.155, 10.171 14.971, 11.120 15.521 C 11.879 15.961, 12.168 15.954, 11.763 15.506 C 11.357 15.059, 12.370 13.408, 14.013 11.837 C 17.291 8.705, 17.815 7, 15.500 7 C 14.675 7, 14 7.609, 14 8.354 C 14 9.099, 12.875 10.922, 11.500 12.405 C 8.736 15.388, 8.404 17.004, 10.186 18.786 C 11.101 19.701, 11.793 19.593, 13.210 18.310 C 14.727 16.937, 15.261 16.878, 16.274 17.970 C 17.032 18.788, 17.066 19.051, 16.363 18.658 C 15.738 18.308, 14.671 18.692, 13.991 19.511 C 12.995 20.711, 13.031 21, 14.178 21 C 14.960 21, 16.132 20.468, 16.783 19.817 C 18.912 17.688, 19.453 20.003, 17.622 23.404 C 16.365 25.737, 15.931 28.325, 16.165 32.080 C 16.478 37.072, 16.316 37.520, 13.750 38.770 C 10.877 40.169, 10.107 41.899, 12.250 42.141 C 16.017 42.568, 18.652 41.838, 19.872 40.031 C 20.627 38.914, 22.047 38, 23.028 38 C 24.364 38, 24.671 37.457, 24.249 35.844 C 23.862 34.366, 24.049 33.912, 24.842 34.403 C 26.860 35.649, 26.097 38.760, 23.250 40.898 C 21.209 42.430, 20.828 43.179, 21.773 43.805 C 23.582 45.001, 29.058 44.012, 29.686 42.375 C 29.977 41.619, 31.011 41, 31.985 41 C 33.942 41, 36.643 38.309, 35.666 37.333 C 35.326 36.992, 34.763 37.453, 34.417 38.357 C 33.753 40.087, 31 40.663, 31 39.071 C 31 38.238, 33.725 35, 34.425 35 C 34.581 35, 35.786 36.037, 37.104 37.304 C 39.479 39.587, 40.932 42.694, 39.094 41.558 C 38.568 41.233, 37.856 41.425, 37.510 41.984 C 37.128 42.601, 38.315 43, 40.535 43 C 43.346 43, 44.308 42.540, 44.710 41 C 45.324 38.652, 47 38.309, 47 40.531 C 47 41.374, 46.325 42.322, 45.500 42.638 C 44.675 42.955, 44 43.616, 44 44.107 C 44 45.547, 47.364 45.134, 49.858 43.387 C 51.652 42.130, 52.016 41.199, 51.505 39.166 C 51.145 37.731, 49.358 35.108, 47.534 33.336 C 45.710 31.565, 44.469 29.864, 44.776 29.558 C 45.082 29.251, 44.569 29, 43.635 29 C 42.701 29, 41.678 28.325, 41.362 27.500 C 41.045 26.675, 39.897 26, 38.810 26 C 37.663 26, 37.016 25.475, 37.268 24.750 C 37.529 24, 39.363 23.535, 41.851 23.586 C 45.520 23.663, 46 23.411, 46 21.408 C 46 18.363, 48.722 15.777, 51.124 16.539 C 52.985 17.130, 52.989 17.045, 51.288 13.478 C 49.605 9.948, 49.610 9.759, 51.418 8.437 C 53.206 7.129, 53.166 7.014, 50.583 6.032 C 47.226 4.755, 43.425 4.826, 39.500 6.236 M 25 6.500 C 25 6.775, 25.225 7, 25.500 7 C 25.775 7, 26 6.775, 26 6.500 C 26 6.225, 25.775 6, 25.500 6 C 25.225 6, 25 6.225, 25 6.500 M 15.500 13 C 15.160 13.550, 15.332 14, 15.882 14 C 16.432 14, 17.160 13.550, 17.500 13 C 17.840 12.450, 17.668 12, 17.118 12 C 16.568 12, 15.840 12.450, 15.500 13 M 34.667 13.667 C 33.491 14.843, 33.954 15.955, 35.391 15.403 C 36.156 15.110, 38.519 16.362, 40.641 18.185 C 44.717 21.686, 43.274 19.162, 39 15.314 C 36.293 12.877, 35.687 12.647, 34.667 13.667 M 35.116 18.452 C 35.052 19.526, 33.538 21.963, 31.750 23.868 L 28.500 27.331 31.829 25.041 C 35.529 22.496, 36.395 20.989, 35.701 18.308 C 35.278 16.678, 35.221 16.692, 35.116 18.452 M 21 19 C 21 19.733, 21.300 20.033, 21.667 19.667 C 22.033 19.300, 22.033 18.700, 21.667 18.333 C 21.300 17.967, 21 18.267, 21 19 M 15 19.500 C 15 19.775, 15.225 20, 15.500 20 C 15.775 20, 16 19.775, 16 19.500 C 16 19.225, 15.775 19, 15.500 19 C 15.225 19, 15 19.225, 15 19.500 M 20 22.059 C 20 22.641, 20.450 22.840, 21 22.500 C 21.550 22.160, 22 21.684, 22 21.441 C 22 21.198, 21.550 21, 21 21 C 20.450 21, 20 21.477, 20 22.059 M 17 28.667 C 17 29.400, 17.675 30, 18.500 30 C 19.325 30, 20 29.400, 20 28.667 C 20 27.933, 19.325 27.333, 18.500 27.333 C 17.675 27.333, 17 27.933, 17 28.667 M 17.218 32.154 C 17.737 33.712, 19.974 33.984, 20.053 32.500 C 20.082 31.950, 19.355 31.345, 18.438 31.154 C 17.395 30.939, 16.938 31.313, 17.218 32.154 M 20 35 C 20 35.550, 20.675 36, 21.500 36 C 22.325 36, 23 35.550, 23 35 C 23 34.450, 22.325 34, 21.500 34 C 20.675 34, 20 34.450, 20 35 M 17.300 37.339 C 16.860 38.075, 15.600 39.189, 14.500 39.814 C 12.690 40.842, 12.785 40.932, 15.500 40.759 C 18.454 40.571, 21.272 38.249, 20.352 36.761 C 19.626 35.586, 18.184 35.858, 17.300 37.339 M 23 42.500 C 23 42.775, 23.225 43, 23.500 43 C 23.775 43, 24 42.775, 24 42.500 C 24 42.225, 23.775 42, 23.500 42 C 23.225 42, 23 42.225, 23 42.500 M 27.346 57.667 C 26.986 58.675, 26.509 59.837, 26.287 60.250 C 26.064 60.663, 26.359 61, 26.941 61 C 27.523 61, 28.032 60.212, 28.070 59.250 C 28.128 57.818, 28.264 57.772, 28.820 59 C 29.194 59.825, 30.368 60.651, 31.428 60.835 C 33.219 61.146, 33.249 61.007, 31.843 58.890 C 29.839 55.872, 28.151 55.413, 27.346 57.667 M 30 58.500 C 30 58.775, 30.225 59, 30.500 59 C 30.775 59, 31 58.775, 31 58.500 C 31 58.225, 30.775 58, 30.500 58 C 30.225 58, 30 58.225, 30 58.500"/>
</svg>
