<svg xmlns="http://www.w3.org/2000/svg" width="64" height="64" viewBox="0 0 64 64">
  <path fill="currentColor" fill-rule="evenodd" clip-rule="evenodd" d="M 8.452 9.646 C 6.862 11.361, 6.036 13.384, 6.102 15.396 L 6.205 18.500 7.022 15.024 C 8.142 10.265, 11.541 7.664, 15.749 8.347 C 17.686 8.661, 18.805 8.494, 18.463 7.941 C 18.144 7.423, 16.312 7, 14.393 7 C 11.905 7, 10.201 7.759, 8.452 9.646 M 25.250 7.708 C 23.517 8.344, 23.682 10.941, 25.500 11.638 C 27.396 12.366, 27.375 14.340, 25.408 19.989 C 24.549 22.457, 24.083 25.664, 24.373 27.115 C 24.957 30.037, 22.902 33.675, 21.246 32.652 C 20.664 32.292, 20.422 31.104, 20.707 30.011 C 21.029 28.781, 20.644 27.801, 19.697 27.437 C 18.760 27.078, 17.904 24.941, 17.490 21.926 C 17.117 19.218, 16.354 16.719, 15.795 16.373 C 14.167 15.367, 13.093 18.114, 14.089 20.734 C 14.591 22.054, 14.721 25.519, 14.379 28.433 C 13.971 31.901, 14.144 33.971, 14.878 34.425 C 15.500 34.809, 16 37.719, 16 40.952 C 16 45.215, 16.404 46.941, 17.500 47.362 C 19.188 48.009, 19.575 53.527, 18 54.500 C 14.942 56.390, 18.425 56.867, 32.250 56.454 C 40.638 56.203, 49.458 56.006, 51.851 56.016 L 56.201 56.034 53.354 53.017 C 51.788 51.358, 49.912 50, 49.186 50 C 48.401 50, 48.071 49.290, 48.373 48.250 C 48.653 47.288, 49.178 43.964, 49.541 40.865 C 50.184 35.379, 50.102 35.119, 46.461 31.088 C 44.403 28.811, 42.996 26.671, 43.333 26.333 C 43.671 25.996, 43.335 24.545, 42.586 23.110 C 41.838 21.674, 40.627 19.150, 39.895 17.500 C 39.163 15.850, 38.417 14.215, 38.237 13.866 C 38.058 13.517, 38.650 12.493, 39.552 11.590 C 40.455 10.687, 40.940 9.285, 40.629 8.474 C 39.940 6.681, 37.045 6.508, 36.885 8.250 C 36.821 8.938, 36.709 10.175, 36.635 11 C 36.560 11.831, 35.730 12.371, 34.773 12.212 C 33.824 12.053, 32.024 12.592, 30.773 13.410 C 28.585 14.842, 28.492 14.781, 28.277 11.775 C 28.026 8.274, 27.100 7.030, 25.250 7.708 M 38 9 C 38 9.550, 38.477 10, 39.059 10 C 39.641 10, 39.840 9.550, 39.500 9 C 39.160 8.450, 38.684 8, 38.441 8 C 38.198 8, 38 8.450, 38 9 M 25.500 10 C 25.840 10.550, 26.316 11, 26.559 11 C 26.802 11, 27 10.550, 27 10 C 27 9.450, 26.523 9, 25.941 9 C 25.359 9, 25.160 9.450, 25.500 10 M 10.807 11.750 C 8.654 14.257, 8.050 16.469, 9.077 18.091 C 9.734 19.128, 9.973 18.815, 9.985 16.905 C 10.005 13.434, 13.189 10.608, 16.054 11.517 C 17.543 11.990, 18.030 11.858, 17.566 11.107 C 16.517 9.409, 12.489 9.792, 10.807 11.750 M 12.200 14.200 C 11.540 14.860, 11 16.085, 11 16.923 C 11 17.974, 11.490 17.746, 12.585 16.182 C 13.717 14.566, 14.753 14.104, 16.210 14.567 C 17.570 14.998, 18.022 14.845, 17.566 14.107 C 16.662 12.644, 13.705 12.695, 12.200 14.200 M 30.138 15.616 L 27.831 17.232 30.136 18.380 C 31.403 19.012, 33.495 21.095, 34.786 23.010 L 37.131 26.490 34.510 28.745 C 33.068 29.985, 31.504 31, 31.033 31 C 30.563 31, 29.013 29.615, 27.589 27.923 C 26.165 26.231, 25 25.419, 25 26.119 C 25 26.818, 26.238 28.758, 27.750 30.430 C 29.351 32.198, 29.593 32.709, 28.330 31.651 C 26.231 29.894, 26.127 29.895, 25.178 31.667 C 24.134 33.617, 24.038 34.009, 23.932 36.750 C 23.878 38.143, 23.643 38.041, 22.780 36.250 C 20.449 31.418, 19.272 35.167, 20.868 42.337 L 21.500 45.174 23.863 42.652 C 25.163 41.265, 26.579 38.639, 27.011 36.815 L 27.795 33.500 27.898 36.624 C 28.079 42.149, 22.890 54.649, 20.163 55.259 C 19.248 55.463, 21.950 55.601, 26.167 55.565 C 30.384 55.529, 34.172 55.163, 34.584 54.750 C 34.996 54.337, 34.656 54, 33.827 54 C 32.075 54, 29.965 49.891, 30.079 46.703 C 30.134 45.158, 30.591 45.695, 31.606 48.500 C 32.639 51.354, 34.060 53.001, 36.568 54.250 C 40.453 56.185, 45 56.572, 45 54.969 C 45 54.401, 44.360 53.692, 43.577 53.391 C 42.795 53.091, 41.898 52.177, 41.585 51.360 C 41.177 50.299, 41.842 50.463, 43.912 51.937 C 45.505 53.072, 48.032 54, 49.527 54 C 51.829 54, 52.055 53.771, 51 52.500 C 50.315 51.675, 49.360 51, 48.878 51 C 48.395 51, 46.987 50.100, 45.750 49 C 44.513 47.900, 42.611 46.223, 41.524 45.274 C 40.437 44.324, 38.538 43.680, 37.304 43.841 C 36.071 44.003, 34.075 43.216, 32.869 42.093 L 30.677 40.050 33.331 37.396 C 35.444 35.283, 36.274 34.982, 37.403 35.920 C 38.372 36.724, 39.027 36.765, 39.470 36.049 C 39.826 35.472, 39.909 34.663, 39.655 34.250 C 39.400 33.837, 40.236 33.500, 41.512 33.500 C 42.789 33.500, 43.650 33.684, 43.425 33.908 C 43.201 34.132, 43.489 34.884, 44.066 35.579 C 44.875 36.555, 44.588 36.711, 42.807 36.264 C 40.624 35.717, 40.587 35.788, 42.129 37.593 C 43.026 38.642, 44.576 41.075, 45.574 43 L 47.389 46.500 48.240 41.619 C 49.009 37.204, 48.831 36.364, 46.379 32.825 C 44.887 30.673, 43.284 28.675, 42.815 28.386 C 42.347 28.096, 40.373 28.842, 38.429 30.044 C 36.485 31.245, 34.713 32.046, 34.490 31.824 C 34.268 31.601, 35.866 30.319, 38.043 28.973 C 42.124 26.451, 42.777 25.177, 40.931 23.331 C 40.004 22.404, 39.351 20.437, 39.077 17.750 C 39.034 17.337, 38.311 17, 37.469 17 C 36.626 17, 35.678 16.325, 35.362 15.500 C 34.619 13.565, 33.015 13.600, 30.138 15.616 M 36 15 C 36 15.733, 36.300 16.033, 36.667 15.667 C 37.033 15.300, 37.033 14.700, 36.667 14.333 C 36.300 13.967, 36 14.267, 36 15 M 51.097 18.917 C 52.811 21.236, 53.117 22.621, 52.590 25.667 C 52.112 28.423, 52.213 29.079, 52.948 28 C 53.510 27.175, 53.976 25.138, 53.985 23.473 C 54 20.350, 51.631 16, 49.913 16 C 49.378 16, 49.911 17.313, 51.097 18.917 M 15.158 19 C 15.158 20.375, 15.385 20.938, 15.662 20.250 C 15.940 19.563, 15.940 18.438, 15.662 17.750 C 15.385 17.063, 15.158 17.625, 15.158 19 M 46.032 17.321 C 46.014 17.773, 46.675 18.818, 47.500 19.643 C 48.325 20.468, 49.007 22.798, 49.015 24.821 C 49.027 27.565, 49.277 28.119, 50 27 C 51.583 24.551, 51.150 22.282, 48.532 19.306 C 47.174 17.763, 46.049 16.870, 46.032 17.321 M 27.336 20.567 C 27.005 21.429, 27.244 22.644, 27.867 23.267 C 29.267 24.667, 29.367 26.345, 28 25.500 C 26.016 24.274, 27.052 26.923, 29.124 28.374 C 30.798 29.547, 31.645 29.614, 33.124 28.690 C 34.156 28.046, 35 26.987, 35 26.336 C 35 24.834, 30.133 19, 28.880 19 C 28.361 19, 27.667 19.705, 27.336 20.567 M 45.418 21.332 C 45.738 22.339, 46 23.828, 46 24.641 C 46 25.453, 46.450 25.840, 47 25.500 C 48.390 24.641, 48.254 23.694, 46.418 21.441 C 44.971 19.665, 44.886 19.656, 45.418 21.332 M 16.079 24.583 C 16.127 25.748, 16.364 25.985, 16.683 25.188 C 16.972 24.466, 16.936 23.603, 16.604 23.271 C 16.272 22.939, 16.036 23.529, 16.079 24.583 M 31.667 23.667 C 31.300 24.033, 31 24.798, 31 25.367 C 31 25.993, 31.466 25.934, 32.183 25.217 C 32.834 24.566, 33.134 23.801, 32.850 23.517 C 32.566 23.233, 32.033 23.300, 31.667 23.667 M 15 30.441 C 15 33.342, 16.055 34.210, 18.048 32.949 C 19.305 32.154, 19.299 32.027, 18 32 C 16.667 31.973, 16.667 31.862, 18 31 C 19.244 30.196, 19.159 30.025, 17.500 30 C 15.841 29.975, 15.756 29.804, 17 29 C 18.282 28.172, 18.246 28.028, 16.750 28.015 C 15.557 28.005, 15 28.777, 15 30.441 M 18.195 37.500 C 18.215 39.150, 18.439 39.704, 18.693 38.731 C 18.947 37.758, 18.930 36.408, 18.656 35.731 C 18.382 35.054, 18.175 35.850, 18.195 37.500 M 30 35.500 C 30 35.775, 30.225 36, 30.500 36 C 30.775 36, 31 35.775, 31 35.500 C 31 35.225, 30.775 35, 30.500 35 C 30.225 35, 30 35.225, 30 35.500 M 34.703 38.531 C 33.111 40.719, 33.090 41, 34.512 41 C 35.395 41, 35.840 41.450, 35.500 42 C 34.675 43.335, 36.327 43.264, 39.479 41.828 C 42.140 40.615, 42.407 38.546, 39.917 38.439 C 39.138 38.405, 37.873 38.851, 37.106 39.431 C 35.979 40.282, 35.848 40.055, 36.423 38.242 C 36.815 37.009, 36.992 36.014, 36.817 36.031 C 36.643 36.049, 35.691 37.174, 34.703 38.531 M 17.195 43.500 C 17.215 45.150, 17.439 45.704, 17.693 44.731 C 17.947 43.758, 17.930 42.408, 17.656 41.731 C 17.382 41.054, 17.175 41.850, 17.195 43.500 M 19.158 44 C 19.158 45.375, 19.385 45.938, 19.662 45.250 C 19.940 44.563, 19.940 43.438, 19.662 42.750 C 19.385 42.063, 19.158 42.625, 19.158 44 M 41 42.845 C 41 43.802, 44.315 47, 45.307 47 C 45.665 47, 45.445 45.875, 44.818 44.500 C 43.753 42.163, 41 40.970, 41 42.845 M 22.876 45.050 C 21.790 45.657, 21.432 46.808, 21.773 48.595 L 22.279 51.241 23.655 47.969 C 24.412 46.170, 24.908 44.574, 24.757 44.424 C 24.606 44.273, 23.760 44.555, 22.876 45.050 M 20.079 50.583 C 20.127 51.748, 20.364 51.985, 20.683 51.188 C 20.972 50.466, 20.936 49.603, 20.604 49.271 C 20.272 48.939, 20.036 49.529, 20.079 50.583 M 26 51 C 26 51.733, 26.300 52.033, 26.667 51.667 C 27.033 51.300, 27.033 50.700, 26.667 50.333 C 26.300 49.967, 26 50.267, 26 51 M 39.500 54 C 39.840 54.550, 40.316 55, 40.559 55 C 40.802 55, 41 54.550, 41 54 C 41 53.450, 40.523 53, 39.941 53 C 39.359 53, 39.160 53.450, 39.500 54"/>
</svg>
