<svg xmlns="http://www.w3.org/2000/svg" width="64" height="64" viewBox="0 0 64 64">
  <path fill="currentColor" fill-rule="evenodd" clip-rule="evenodd" d="M 30.434 8.107 C 29.973 8.852, 30.445 8.994, 31.875 8.540 C 33.044 8.169, 34 8.301, 34 8.833 C 34 9.365, 31.638 10.354, 28.750 11.031 C 25.862 11.708, 22.938 12.708, 22.250 13.253 C 20.106 14.954, 20.798 17.911, 23.500 18.589 C 27.143 19.504, 26.559 21.871, 22.250 23.651 C 20.188 24.502, 17.665 25.942, 16.644 26.850 C 13.564 29.588, 11 35.661, 11.004 40.210 C 11.009 46.393, 13.902 50.601, 19.202 52.135 C 21.566 52.819, 24.573 54.193, 25.885 55.189 C 28.434 57.125, 34.483 57.645, 35.491 56.015 C 35.867 55.406, 34.956 55.259, 33.103 55.629 C 31.044 56.041, 29.073 55.608, 26.803 54.243 C 24.986 53.151, 22.284 51.971, 20.797 51.621 C 13.077 49.805, 9.780 41.135, 13.892 33.462 C 15.051 31.299, 16 30.186, 16 30.987 C 16 31.876, 16.680 31.480, 17.742 29.973 C 18.700 28.613, 19.386 27.194, 19.266 26.820 C 19.145 26.446, 20.615 25.622, 22.531 24.990 C 24.447 24.357, 26.470 22.991, 27.025 21.954 C 27.851 20.410, 27.533 19.755, 25.267 18.337 C 23.745 17.384, 22.323 16.480, 22.107 16.327 C 21.149 15.647, 24.441 13, 26.245 13 C 27.884 13, 28.027 13.263, 27.034 14.459 C 26.032 15.667, 26.311 16.025, 28.662 16.542 C 30.223 16.886, 31.990 17.313, 32.590 17.491 C 33.839 17.861, 33.794 21.578, 32.527 22.730 C 32.061 23.153, 32.046 22.868, 32.494 22.095 C 33.015 21.198, 32.926 20.927, 32.248 21.346 C 30.872 22.197, 31.874 26.014, 33.651 26.697 C 34.407 26.986, 35.655 26.702, 36.424 26.063 C 37.193 25.425, 38.064 25.294, 38.360 25.773 C 38.656 26.252, 37.990 27.421, 36.880 28.371 C 35.381 29.654, 35.020 30.815, 35.476 32.890 C 35.892 34.785, 35.593 36.093, 34.544 36.963 C 33.695 37.668, 33 38.726, 33 39.314 C 33 39.901, 33.661 39.509, 34.468 38.441 C 35.276 37.374, 35.951 37.002, 35.968 37.615 C 35.986 38.228, 35.067 39.916, 33.927 41.365 C 32.788 42.814, 32.312 44, 32.871 44 C 33.429 44, 34.519 43.098, 35.291 41.995 C 36.376 40.446, 37.387 40.127, 39.727 40.595 C 42.987 41.247, 44.397 40.034, 44.463 36.519 C 44.485 35.361, 45.319 34.376, 46.468 34.153 C 48.068 33.841, 48.216 34.035, 47.260 35.187 C 46.613 35.966, 46.329 37.542, 46.629 38.689 C 47.299 41.251, 45.806 42.260, 41.146 42.396 C 37.874 42.491, 37.570 42.753, 37.536 45.500 C 37.508 47.879, 37.011 48.569, 35.139 48.834 C 33.426 49.076, 32.995 48.817, 33.570 47.887 C 34.005 47.183, 32.817 47.674, 30.931 48.979 C 25.570 52.688, 25.573 52.694, 31.750 50.330 C 33.415 49.693, 33.415 49.758, 31.748 51.662 C 30.112 53.530, 30.282 55, 32.135 55 C 32.576 55, 32.659 54.274, 32.318 53.387 C 31.788 52.006, 32.273 51.870, 35.678 52.446 C 38.673 52.952, 39.977 52.732, 40.951 51.559 C 42.378 49.839, 41.014 49.386, 39.367 51.033 C 38.799 51.601, 37.558 51.768, 36.610 51.404 C 35.094 50.822, 35.165 50.602, 37.192 49.588 C 38.462 48.954, 39.501 47.567, 39.503 46.508 C 39.505 45.115, 40.461 44.385, 42.954 43.876 C 46.939 43.060, 49.496 40.303, 47.971 38.465 C 46.901 37.175, 48.080 35.817, 51.250 34.687 C 52.373 34.286, 52.977 33.066, 52.937 31.281 C 52.876 28.619, 52.835 28.596, 51.969 30.750 C 51.274 32.478, 50.258 33, 47.591 33 C 43.897 33, 42.779 33.984, 42.607 37.386 C 42.548 38.549, 41.938 39.455, 41.250 39.400 C 37.123 39.070, 36.818 38.920, 37.393 37.500 C 37.727 36.675, 38.301 35.251, 38.670 34.336 C 39.093 33.285, 38.948 32.914, 38.275 33.330 C 37.689 33.692, 36.915 33.222, 36.556 32.285 C 36.124 31.159, 36.680 29.991, 38.201 28.835 C 40.172 27.338, 40.324 26.803, 39.270 25.091 C 37.929 22.911, 38.200 22.587, 42.140 21.647 C 45.392 20.871, 46.414 18.588, 44.296 16.831 C 42.909 15.680, 42.801 15.797, 43.427 17.769 C 44.044 19.714, 43.712 20.108, 40.993 20.651 C 38.945 21.061, 37.530 22.107, 36.947 23.641 C 36.453 24.938, 35.663 26, 35.191 26 C 33.375 26, 33.164 24.680, 34.623 22.452 C 35.793 20.667, 35.889 19.661, 35.042 18.079 C 34.437 16.948, 32.803 15.738, 31.410 15.388 L 28.878 14.753 31.939 12.891 C 35.450 10.756, 36.164 7, 33.059 7 C 31.991 7, 30.810 7.498, 30.434 8.107 M 23.861 26.914 C 22.562 27.967, 21.725 29.051, 22 29.324 C 22.275 29.597, 23.850 28.738, 25.500 27.415 C 27.150 26.092, 27.987 25.008, 27.361 25.005 C 26.734 25.002, 25.159 25.861, 23.861 26.914 M 17.029 27.961 C 16.220 28.473, 15.818 29.152, 16.136 29.470 C 16.455 29.788, 17.284 29.362, 17.980 28.524 C 19.423 26.786, 19.146 26.622, 17.029 27.961 M 26.861 29.967 C 23.792 32.523, 25.061 32.543, 29.226 30.004 C 31.176 28.815, 31.837 28.006, 30.861 28.004 C 29.959 28.002, 28.159 28.885, 26.861 29.967 M 14.386 39.437 C 13.650 41.354, 14.568 44, 15.969 44 C 17.297 44, 17.318 39.315, 15.993 38.496 C 15.439 38.153, 14.716 38.577, 14.386 39.437 M 21.655 39.458 C 20.839 41.583, 21.913 44, 23.673 44 C 24.668 44, 25.032 43.148, 24.816 41.327 C 24.456 38.283, 22.540 37.150, 21.655 39.458 M 38 43.500 C 38 43.775, 38.225 44, 38.500 44 C 38.775 44, 39 43.775, 39 43.500 C 39 43.225, 38.775 43, 38.500 43 C 38.225 43, 38 43.225, 38 43.500 M 24.500 49 L 21.500 49.763 24.191 49.882 C 25.671 49.947, 27.160 49.550, 27.500 49 C 27.840 48.450, 27.979 48.053, 27.809 48.118 C 27.639 48.183, 26.150 48.580, 24.500 49"/>
</svg>
