<svg xmlns="http://www.w3.org/2000/svg" width="64" height="64" viewBox="0 0 64 64">
  <path fill="currentColor" fill-rule="evenodd" clip-rule="evenodd" d="M 19.687 7.084 C 16.639 9.103, 15.026 10.842, 15.242 11.877 C 15.450 12.869, 16.426 13.410, 17.752 13.269 C 19.308 13.103, 19.762 13.457, 19.354 14.519 C 18.995 15.456, 19.388 16, 20.424 16 C 21.326 16, 22.322 15.325, 22.638 14.500 C 23.283 12.819, 27 12.423, 27 14.035 C 27 14.605, 26.265 16.192, 25.367 17.563 C 23.908 19.790, 23.508 19.914, 21.617 18.726 C 19.457 17.370, 15.711 17.705, 12.976 19.500 C 12.138 20.050, 10.633 21.786, 9.633 23.357 C 8.362 25.353, 8.130 26.530, 8.865 27.265 C 9.599 27.999, 10.436 27.891, 11.645 26.908 C 13.175 25.663, 13.299 25.702, 12.719 27.250 C 11.840 29.595, 13.267 29.467, 15.500 27 C 17.797 24.461, 20.508 24.291, 19.488 26.750 C 18.667 28.729, 18.671 29.473, 19.524 33 C 19.950 34.760, 19.507 36.166, 18.026 37.750 C 16.869 38.987, 16.379 40, 16.938 40 C 17.497 40, 18.654 38.932, 19.509 37.627 C 20.599 35.964, 20.894 33.943, 20.497 30.877 L 19.929 26.500 22.075 31.859 C 23.788 36.136, 24.001 37.702, 23.132 39.609 C 22.533 40.924, 22.439 42, 22.924 42 C 23.408 42, 24.275 40.650, 24.850 39 C 25.870 36.075, 28 34.835, 28 37.167 C 28 37.808, 28.230 38.104, 28.511 37.823 C 28.792 37.542, 28.342 35.385, 27.511 33.030 C 25.505 27.346, 25.605 24.695, 28 20 C 30.933 14.251, 30.646 11.421, 27 10.150 C 24.650 9.330, 24 9.391, 24 10.430 C 24 11.159, 23.315 12.324, 22.477 13.019 C 21.194 14.084, 21.060 14.007, 21.627 12.529 C 22.216 10.994, 21.875 10.864, 18.900 11.485 C 15.714 12.150, 15.625 12.100, 17.489 10.686 C 18.583 9.856, 19.832 9.396, 20.264 9.663 C 20.696 9.930, 20.926 9.710, 20.775 9.174 C 20.624 8.638, 20.950 8.101, 21.500 7.980 C 22.050 7.859, 23.476 7.389, 24.669 6.936 C 25.992 6.433, 27.841 6.577, 29.412 7.306 C 33.258 9.090, 33.655 13.341, 30.598 20.012 C 28.227 25.184, 28.159 25.769, 29.492 29.512 C 30.273 31.705, 30.932 32.697, 30.956 31.715 C 31.026 28.881, 33.884 25.246, 36.573 24.571 C 39.034 23.953, 42.889 25.360, 44.180 27.346 C 44.554 27.921, 44.442 29.174, 43.930 30.130 C 42.741 32.352, 42.757 33, 44 33 C 44.550 33, 44.947 32.663, 44.882 32.250 C 44.316 28.665, 46.342 28.376, 47.266 31.910 C 47.653 33.388, 47.383 33.704, 46.137 33.238 C 44.719 32.707, 44.682 32.850, 45.863 34.302 C 47.441 36.241, 49 35.663, 49 33.138 C 49 31.002, 43.119 22.808, 42.057 23.465 C 41.013 24.110, 38.821 19.099, 39.597 17.843 C 39.958 17.259, 41.334 17.904, 42.870 19.375 C 44.612 21.044, 45.982 21.629, 46.867 21.082 C 47.807 20.501, 47.879 20.043, 47.107 19.566 C 46.498 19.190, 46 19.212, 46 19.615 C 46 20.019, 44.889 19.305, 43.531 18.029 C 42.173 16.753, 41.299 15.325, 41.590 14.855 C 42.403 13.540, 38.558 13.842, 37.200 15.200 C 36.540 15.860, 36 18.061, 36 20.092 C 36 23.167, 35.594 23.885, 33.569 24.393 C 32.111 24.759, 30.965 25.903, 30.706 27.252 C 30.423 28.718, 30.236 28.282, 30.168 26 C 30.111 24.075, 30.724 21.626, 31.532 20.559 C 32.763 18.930, 33 18.881, 33 20.250 C 33 21.148, 33.407 22.134, 33.905 22.441 C 34.415 22.757, 34.590 21.362, 34.306 19.245 C 33.926 16.412, 34.257 15.082, 35.651 13.835 C 39.067 10.779, 43.736 11.099, 47.569 14.652 L 50.430 17.303 46.465 16.574 C 43.319 15.995, 42.750 16.100, 43.711 17.083 C 45.618 19.034, 49.751 19.089, 50.492 17.174 C 50.936 16.027, 50.122 14.647, 47.908 12.791 C 46.130 11.302, 44.307 10.310, 43.858 10.588 C 43.409 10.865, 42.101 10.589, 40.951 9.974 C 39.220 9.048, 38.541 9.224, 37.003 10.997 C 35.185 13.093, 35.122 13.097, 34.108 11.201 C 33.537 10.135, 33.372 8.961, 33.742 8.592 C 34.111 8.223, 33.420 7.661, 32.206 7.344 C 30.993 7.026, 30 6.317, 30 5.767 C 30 5.217, 28.891 4.979, 27.535 5.238 C 26.179 5.497, 24.935 5.306, 24.771 4.812 C 24.606 4.319, 22.318 5.341, 19.687 7.084 M 22 6.500 C 22 6.775, 22.225 7, 22.500 7 C 22.775 7, 23 6.775, 23 6.500 C 23 6.225, 22.775 6, 22.500 6 C 22.225 6, 22 6.225, 22 6.500 M 25 11.500 C 25 11.775, 25.225 12, 25.500 12 C 25.775 12, 26 11.775, 26 11.500 C 26 11.225, 25.775 11, 25.500 11 C 25.225 11, 25 11.225, 25 11.500 M 27.031 11.500 C 27.031 12.050, 27.467 13.175, 28 14 C 28.533 14.825, 28.969 15.050, 28.969 14.500 C 28.969 13.950, 28.533 12.825, 28 12 C 27.467 11.175, 27.031 10.950, 27.031 11.500 M 44.333 14.667 C 44.700 15.033, 45.300 15.033, 45.667 14.667 C 46.033 14.300, 45.733 14, 45 14 C 44.267 14, 43.967 14.300, 44.333 14.667 M 38.333 15.667 C 38.700 16.033, 39.300 16.033, 39.667 15.667 C 40.033 15.300, 39.733 15, 39 15 C 38.267 15, 37.967 15.300, 38.333 15.667 M 27.333 16.667 C 27.700 17.033, 28.300 17.033, 28.667 16.667 C 29.033 16.300, 28.733 16, 28 16 C 27.267 16, 26.967 16.300, 27.333 16.667 M 37.116 18.168 C 36.952 20.529, 38.033 23, 39.229 23 C 39.916 23, 39.917 22.596, 39.230 21.750 C 38.672 21.063, 37.994 19.600, 37.724 18.500 C 37.361 17.024, 37.202 16.937, 37.116 18.168 M 26 19.059 C 26 19.641, 26.450 19.840, 27 19.500 C 27.550 19.160, 28 18.684, 28 18.441 C 28 18.198, 27.550 18, 27 18 C 26.450 18, 26 18.477, 26 19.059 M 14.250 20.648 C 12.463 21.529, 11 22.607, 11 23.043 C 11 23.479, 10.691 24.661, 10.313 25.668 C 9.714 27.263, 9.838 27.327, 11.269 26.164 C 12.173 25.429, 13.412 25.137, 14.024 25.515 C 14.668 25.913, 15.372 25.294, 15.700 24.039 C 16.149 22.323, 16.891 21.941, 19.299 22.189 C 22.896 22.558, 24.088 20.524, 20.791 19.641 C 17.783 18.835, 17.992 18.803, 14.250 20.648 M 24 22 C 24 22.550, 24.450 23, 25 23 C 25.550 23, 26 22.550, 26 22 C 26 21.450, 25.550 21, 25 21 C 24.450 21, 24 21.450, 24 22 M 12 23.500 C 12 23.775, 12.225 24, 12.500 24 C 12.775 24, 13 23.775, 13 23.500 C 13 23.225, 12.775 23, 12.500 23 C 12.225 23, 12 23.225, 12 23.500 M 20.020 24.524 C 20.716 25.362, 21.491 25.842, 21.743 25.591 C 22.436 24.897, 21.027 23, 19.819 23 C 19.155 23, 19.231 23.574, 20.020 24.524 M 14 24.500 C 14 24.775, 14.225 25, 14.500 25 C 14.775 25, 15 24.775, 15 24.500 C 15 24.225, 14.775 24, 14.500 24 C 14.225 24, 14 24.225, 14 24.500 M 23 25.500 C 23 26.325, 23.450 27, 24 27 C 24.550 27, 25 26.325, 25 25.500 C 25 24.675, 24.550 24, 24 24 C 23.450 24, 23 24.675, 23 25.500 M 34.627 28.859 C 33.500 30.105, 32.975 31.991, 33.180 34.064 C 33.477 37.086, 33.773 37.325, 37.374 37.467 C 39.716 37.559, 41.737 38.288, 42.484 39.310 C 43.164 40.239, 44.268 41, 44.937 41 C 45.606 41, 44.769 39.835, 43.077 38.411 C 41.325 36.937, 40.023 34.892, 40.052 33.661 L 40.105 31.500 41.674 33.750 C 42.538 34.987, 43.977 35.990, 44.872 35.978 C 46.111 35.961, 45.931 35.518, 44.121 34.126 C 42.812 33.119, 41.687 31.217, 41.621 29.898 C 41.531 28.111, 40.850 27.424, 38.948 27.203 C 37.390 27.021, 35.707 27.666, 34.627 28.859 M 23 29.500 C 23 30.325, 23.450 31, 24 31 C 24.550 31, 25 30.325, 25 29.500 C 25 28.675, 24.550 28, 24 28 C 23.450 28, 23 28.675, 23 29.500 M 35.250 29.496 C 33.747 31.203, 33.619 33, 35 33 C 35.550 33, 36 32.394, 36 31.653 C 36 30.912, 37.013 29.817, 38.250 29.220 C 40.335 28.215, 40.353 28.133, 38.500 28.106 C 37.400 28.089, 35.938 28.715, 35.250 29.496 M 37.468 32.101 C 37.101 33.256, 37.296 34.696, 37.901 35.301 C 38.700 36.100, 39 35.958, 39 34.782 C 39 33.892, 39.273 32.452, 39.607 31.582 C 39.941 30.712, 39.746 30, 39.174 30 C 38.603 30, 37.835 30.945, 37.468 32.101 M 24.154 33.438 C 24.345 34.355, 24.950 35.082, 25.500 35.053 C 26.984 34.974, 26.712 32.737, 25.154 32.218 C 24.313 31.938, 23.939 32.395, 24.154 33.438 M 34 35 C 34 35.550, 34.450 36, 35 36 C 35.550 36, 36 35.550, 36 35 C 36 34.450, 35.550 34, 35 34 C 34.450 34, 34 34.450, 34 35 M 12.206 38.568 C 9.544 40.433, 10.162 42, 13.559 42 C 14.902 42, 16 42.394, 16 42.875 C 16 44.406, 21.978 45.013, 26.681 43.959 C 29.848 43.250, 31.614 43.265, 32.511 44.009 C 34.126 45.349, 46.659 44.192, 48.324 42.548 C 48.971 41.910, 50.400 41.044, 51.500 40.623 C 53.475 39.867, 53.476 39.839, 51.559 38.429 C 50.491 37.643, 48.466 37.061, 47.059 37.136 L 44.500 37.272 47 37.721 C 50.442 38.338, 52.003 40, 49.141 40 C 47.899 40, 47.140 40.418, 47.456 40.928 C 48.169 42.083, 44.406 43.369, 42.949 42.468 C 42.360 42.105, 40.534 42.365, 38.889 43.046 C 36.508 44.032, 35.425 44.030, 33.567 43.036 C 31.841 42.112, 30.021 42.047, 26.559 42.785 C 21.725 43.816, 18 43.424, 18 41.883 C 18 41.398, 16.650 41, 15 41 C 11.251 41, 11.134 39.728, 14.750 38.299 C 16.262 37.702, 16.813 37.165, 15.973 37.106 C 15.132 37.048, 13.437 37.706, 12.206 38.568 M 21 38 C 21 38.733, 21.300 39.033, 21.667 38.667 C 22.033 38.300, 22.033 37.700, 21.667 37.333 C 21.300 36.967, 21 37.267, 21 38 M 27 39.500 C 27 39.775, 27.225 40, 27.500 40 C 27.775 40, 28 39.775, 28 39.500 C 28 39.225, 27.775 39, 27.500 39 C 27.225 39, 27 39.225, 27 39.500 M 30.500 40 C 30.840 40.550, 31.343 41, 31.618 41 C 31.893 41, 31.840 40.550, 31.500 40 C 31.160 39.450, 30.657 39, 30.382 39 C 30.107 39, 30.160 39.450, 30.500 40 M 39.333 40.667 C 39.700 41.033, 40.300 41.033, 40.667 40.667 C 41.033 40.300, 40.733 40, 40 40 C 39.267 40, 38.967 40.300, 39.333 40.667 M 10.113 58.250 L 9.029 61.500 10.891 59.293 C 11.914 58.078, 13.029 57.362, 13.367 57.701 C 13.706 58.039, 13.576 58.807, 13.080 59.408 C 12.465 60.152, 13.127 60.535, 15.158 60.610 L 18.139 60.720 15.008 57.860 C 13.286 56.287, 11.723 55, 11.536 55 C 11.349 55, 10.708 56.462, 10.113 58.250 M 28.655 56.829 C 26.836 58.838, 26.466 61, 27.941 61 C 28.459 61, 29.174 60.528, 29.530 59.951 C 29.973 59.235, 30.624 59.273, 31.589 60.074 C 32.518 60.845, 33 60.882, 33 60.181 C 33 58.402, 31 57.755, 29.456 59.036 C 28.482 59.845, 28 59.885, 28 59.158 C 28 58.560, 28.902 57.588, 30.004 56.998 C 31.700 56.090, 32.187 56.316, 33.165 58.462 C 33.801 59.858, 34.725 61, 35.220 61 C 36.224 61, 35.451 59.380, 33.193 56.750 C 31.303 54.549, 30.708 54.560, 28.655 56.829 M 43 57.500 C 43 58.417, 43.484 59.005, 44.075 58.808 C 44.666 58.611, 45.150 58.023, 45.150 57.500 C 45.150 56.977, 44.666 56.389, 44.075 56.192 C 43.484 55.995, 43 56.583, 43 57.500 M 44 57.500 C 44 57.775, 44.225 58, 44.500 58 C 44.775 58, 45 57.775, 45 57.500 C 45 57.225, 44.775 57, 44.500 57 C 44.225 57, 44 57.225, 44 57.500"/>
</svg>
