<svg xmlns="http://www.w3.org/2000/svg" width="64" height="64" viewBox="0 0 64 64">
  <path fill="currentColor" fill-rule="evenodd" clip-rule="evenodd" d="M 34.333 9.667 C 34.700 10.033, 35.300 10.033, 35.667 9.667 C 36.033 9.300, 35.733 9, 35 9 C 34.267 9, 33.967 9.300, 34.333 9.667 M 24.359 12.250 C 23.265 13.488, 21.602 15.735, 20.665 17.245 C 19.728 18.754, 17.500 20.600, 15.715 21.346 C 11.646 23.046, 5.673 29.705, 6.435 31.691 C 6.746 32.501, 7 34.252, 7 35.582 C 7 38.324, 8.944 38.942, 9.103 36.250 C 9.160 35.288, 9.653 36.180, 10.199 38.234 C 11.104 41.639, 11.378 41.868, 13.309 40.835 L 15.426 39.702 13.213 38.883 C 11.026 38.074, 10.066 35, 12 35 C 12.550 35, 13.007 35.563, 13.015 36.250 C 13.026 37.083, 13.354 37, 14 36 C 14.626 35.031, 14.975 34.936, 14.985 35.731 C 14.993 36.408, 16.125 37.244, 17.500 37.589 C 18.875 37.934, 20 38.618, 20 39.108 C 20 40.749, 19.508 41.503, 18.627 41.209 C 18.147 41.049, 18.015 41.597, 18.334 42.427 C 18.652 43.257, 18.413 44.245, 17.802 44.622 C 17.154 45.023, 16.971 44.856, 17.362 44.224 C 17.731 43.627, 17.575 42.856, 17.016 42.510 C 16.457 42.165, 16 42.296, 16 42.802 C 16 44.026, 10.702 43.005, 9.765 41.601 C 9.361 40.995, 9.024 41.872, 9.015 43.550 C 8.998 46.940, 10.534 49, 13.078 49 C 14 49, 15.373 49.745, 16.128 50.655 C 16.882 51.565, 18.982 52.929, 20.794 53.687 C 24.604 55.279, 27.342 54.359, 23.917 52.636 C 22.675 52.011, 21.491 50.993, 21.287 50.373 C 20.541 48.110, 23.900 48.204, 28.348 50.572 C 32.851 52.970, 38.358 53.695, 40.709 52.201 C 41.488 51.706, 40.165 50.601, 36.979 49.088 C 34.263 47.799, 32.265 46.381, 32.539 45.938 C 32.812 45.494, 34.649 45.393, 36.619 45.713 C 40.003 46.262, 40.132 46.184, 38.952 44.295 C 38.266 43.196, 36.865 41.772, 35.841 41.132 C 34.368 40.213, 33.467 40.303, 31.545 41.562 C 29.443 42.940, 29.262 43.480, 30.209 45.559 C 30.811 46.880, 32.135 48.226, 33.152 48.548 C 34.168 48.871, 35 49.554, 35 50.067 C 35 50.580, 36.013 51.052, 37.250 51.116 C 39.017 51.207, 39.114 51.332, 37.702 51.699 C 36.713 51.955, 35.270 51.639, 34.496 50.996 C 33.721 50.354, 32.722 50.054, 32.276 50.329 C 31.041 51.092, 23.897 46.456, 24.752 45.447 C 25.164 44.963, 24.727 45.157, 23.782 45.879 C 22.837 46.601, 19.912 47.333, 17.282 47.506 C 14.652 47.679, 13.451 47.613, 14.612 47.359 C 15.774 47.105, 17.927 45.641, 19.398 44.107 C 21.721 41.681, 21.934 40.956, 21.022 38.557 C 20.307 36.676, 19.482 35.985, 18.434 36.387 C 17.555 36.724, 17.158 36.553, 17.507 35.989 C 17.843 35.445, 17.641 35, 17.059 35 C 16.477 35, 16 34.538, 16 33.974 C 16 33.381, 17.215 33.577, 18.883 34.439 C 20.534 35.293, 22.082 37.120, 22.506 38.715 C 22.913 40.247, 23.458 40.923, 23.717 40.218 C 24.551 37.948, 20.957 33.868, 16.316 31.816 C 13.833 30.717, 10.946 30.042, 9.901 30.316 C 7.438 30.960, 7.480 29.781, 10 27.500 C 11.100 26.505, 12 26.196, 12 26.814 C 12 27.454, 12.721 27.661, 13.677 27.294 C 15.194 26.712, 15.178 26.589, 13.505 26.002 C 11.802 25.404, 11.844 25.223, 14.051 23.677 C 15.368 22.755, 17.035 22, 17.756 22 C 18.477 22, 19.997 20.425, 21.133 18.500 C 22.268 16.575, 23.367 15, 23.574 15 C 23.781 15, 23.680 16.350, 23.350 18 C 22.786 20.821, 22.936 21, 25.875 21 C 28.813 21, 30.208 22.431, 27.990 23.170 C 27.435 23.355, 27.932 24.101, 29.095 24.827 C 30.483 25.694, 30.961 25.746, 30.486 24.978 C 30.011 24.209, 30.403 23.935, 31.632 24.179 C 32.913 24.433, 33.402 25.249, 33.187 26.775 C 32.843 29.225, 33.943 29.657, 35.800 27.800 C 36.733 26.867, 37 26.867, 37 27.800 C 37 28.460, 37.450 29, 38 29 C 38.550 29, 39 28.325, 39 27.500 C 39 26.641, 38.099 26, 36.892 26 C 35.145 26, 34.890 25.573, 35.407 23.514 C 35.996 21.166, 35.892 21.092, 33.511 22.177 C 30.513 23.543, 29.201 22.667, 31 20.500 C 32.743 18.400, 31.656 17.579, 29.008 18.996 C 27.817 19.633, 26.173 19.897, 25.353 19.582 C 23.310 18.798, 24.519 15.332, 27.864 12.386 C 30.334 10.209, 30.369 10.061, 28.424 10.032 C 27.283 10.014, 25.453 11.012, 24.359 12.250 M 26 11.500 C 26 11.775, 26.225 12, 26.500 12 C 26.775 12, 27 11.775, 27 11.500 C 27 11.225, 26.775 11, 26.500 11 C 26.225 11, 26 11.225, 26 11.500 M 32 15 C 32 15.550, 32.675 16, 33.500 16 C 34.325 16, 35 15.550, 35 15 C 35 14.450, 34.325 14, 33.500 14 C 32.675 14, 32 14.450, 32 15 M 37.813 16.683 C 38.534 16.972, 39.397 16.936, 39.729 16.604 C 40.061 16.272, 39.471 16.036, 38.417 16.079 C 37.252 16.127, 37.015 16.364, 37.813 16.683 M 41.543 22.931 C 41.226 23.443, 41.425 24.144, 41.984 24.490 C 43.177 25.227, 45 24.291, 45 22.941 C 45 21.724, 42.293 21.716, 41.543 22.931 M 51 24 C 51 24.550, 51.450 25, 52 25 C 52.550 25, 53 24.550, 53 24 C 53 23.450, 52.550 23, 52 23 C 51.450 23, 51 23.450, 51 24 M 16 24.500 C 16 24.775, 16.225 25, 16.500 25 C 16.775 25, 17 24.775, 17 24.500 C 17 24.225, 16.775 24, 16.500 24 C 16.225 24, 16 24.225, 16 24.500 M 45.667 24.667 C 44.516 25.817, 44.938 27, 46.500 27 C 47.325 27, 48 26.325, 48 25.500 C 48 23.938, 46.817 23.516, 45.667 24.667 M 46 25.500 C 46 25.775, 46.225 26, 46.500 26 C 46.775 26, 47 25.775, 47 25.500 C 47 25.225, 46.775 25, 46.500 25 C 46.225 25, 46 25.225, 46 25.500 M 19.603 27.538 C 18.559 28.307, 17.263 28.663, 16.723 28.329 C 16.183 27.995, 15.947 28.347, 16.199 29.111 C 16.853 31.095, 20.885 31.462, 21.599 29.603 C 22.582 27.042, 21.622 26.050, 19.603 27.538 M 40.510 29.016 C 40.856 29.575, 41.557 29.774, 42.069 29.457 C 43.456 28.600, 43.198 28, 41.441 28 C 40.584 28, 40.165 28.457, 40.510 29.016 M 36.005 29.742 C 36.014 31.296, 42.174 37.011, 43.174 36.393 C 43.846 35.977, 43.734 35.446, 42.857 34.890 C 41.381 33.955, 42.247 33.677, 45.750 33.961 C 46.987 34.061, 48 33.661, 48 33.072 C 48 32.482, 48.675 32, 49.500 32 C 50.325 32, 51 31.325, 51 30.500 C 51 29.667, 50.111 29, 49 29 C 47.900 29, 46.996 29.337, 46.992 29.750 C 46.980 30.882, 41.697 33.105, 41.057 32.247 C 40.110 30.977, 36 28.939, 36.005 29.742 M 32.543 30.931 C 31.860 32.036, 33.437 33.230, 34.361 32.306 C 35.311 31.355, 35.134 30, 34.059 30 C 33.541 30, 32.859 30.419, 32.543 30.931 M 46.559 31.532 C 45.491 32.339, 45.099 33, 45.686 33 C 46.274 33, 47.315 32.325, 48 31.500 C 49.557 29.624, 49.067 29.634, 46.559 31.532 M 10.510 32.016 C 10.856 32.575, 11.557 32.774, 12.069 32.457 C 12.581 32.141, 13 32.385, 13 33 C 13 33.615, 13.498 33.810, 14.107 33.434 C 14.878 32.957, 14.803 32.490, 13.857 31.890 C 11.977 30.699, 9.748 30.783, 10.510 32.016 M 23 32 C 23 32.733, 23.300 33.033, 23.667 32.667 C 24.033 32.300, 24.033 31.700, 23.667 31.333 C 23.300 30.967, 23 31.267, 23 32 M 29 31.500 C 29 31.775, 29.225 32, 29.500 32 C 29.775 32, 30 31.775, 30 31.500 C 30 31.225, 29.775 31, 29.500 31 C 29.225 31, 29 31.225, 29 31.500 M 8 33 C 8 33.733, 8.300 34.033, 8.667 33.667 C 9.033 33.300, 9.033 32.700, 8.667 32.333 C 8.300 31.967, 8 32.267, 8 33 M 26.455 36.977 C 26.455 39.100, 26.802 40.622, 27.227 40.360 C 28.213 39.750, 28.203 35.868, 27.212 34.309 C 26.794 33.651, 26.455 34.846, 26.455 36.977 M 29.429 37.505 C 29.359 40.738, 29.409 40.778, 31.679 39.291 C 34.301 37.573, 34.760 36.494, 32.500 37.362 C 31.604 37.706, 31 37.370, 31 36.528 C 31 35.752, 30.663 34.911, 30.250 34.658 C 29.837 34.406, 29.468 35.687, 29.429 37.505 M 55 35 C 55 35.550, 55.450 36, 56 36 C 56.550 36, 57 35.550, 57 35 C 57 34.450, 56.550 34, 56 34 C 55.450 34, 55 34.450, 55 35 M 50.500 37 C 50.160 37.550, 50.584 38, 51.441 38 C 52.298 38, 53 37.550, 53 37 C 53 36.450, 52.577 36, 52.059 36 C 51.541 36, 50.840 36.450, 50.500 37 M 37.515 37.976 C 36.769 39.183, 40.695 43.639, 41.656 42.677 C 42.029 42.305, 41.808 42, 41.167 42 C 40.525 42, 40 41.362, 40 40.583 C 40 39.804, 39.438 38.940, 38.750 38.662 C 38.063 38.385, 38.464 38.122, 39.643 38.079 C 40.822 38.036, 42.045 38.675, 42.362 39.500 C 42.999 41.160, 46.547 41.542, 47.469 40.050 C 47.792 39.528, 47.256 38.706, 46.278 38.224 C 43.717 36.961, 38.238 36.806, 37.515 37.976 M 43 38.500 C 43 38.775, 43.225 39, 43.500 39 C 43.775 39, 44 38.775, 44 38.500 C 44 38.225, 43.775 38, 43.500 38 C 43.225 38, 43 38.225, 43 38.500 M 45 39.500 C 45 39.775, 45.225 40, 45.500 40 C 45.775 40, 46 39.775, 46 39.500 C 46 39.225, 45.775 39, 45.500 39 C 45.225 39, 45 39.225, 45 39.500 M 33.250 43.031 C 32.013 43.529, 31 44.063, 31 44.218 C 31 44.373, 32.293 44.500, 33.873 44.500 C 35.760 44.500, 36.581 44.071, 36.266 43.250 C 36.002 42.563, 35.722 42.029, 35.643 42.063 C 35.564 42.098, 34.487 42.534, 33.250 43.031 M 45 44 C 45 44.550, 45.675 45, 46.500 45 C 47.325 45, 48 44.550, 48 44 C 48 43.450, 47.325 43, 46.500 43 C 45.675 43, 45 43.450, 45 44 M 10.813 45.683 C 11.534 45.972, 12.397 45.936, 12.729 45.604 C 13.061 45.272, 12.471 45.036, 11.417 45.079 C 10.252 45.127, 10.015 45.364, 10.813 45.683 M 14.333 45.667 C 14.700 46.033, 15.300 46.033, 15.667 45.667 C 16.033 45.300, 15.733 45, 15 45 C 14.267 45, 13.967 45.300, 14.333 45.667 M 49 45.500 C 49 45.775, 49.225 46, 49.500 46 C 49.775 46, 50 45.775, 50 45.500 C 50 45.225, 49.775 45, 49.500 45 C 49.225 45, 49 45.225, 49 45.500 M 44 48 C 44 48.550, 44.450 49, 45 49 C 45.550 49, 46 48.550, 46 48 C 46 47.450, 45.550 47, 45 47 C 44.450 47, 44 47.450, 44 48 M 17.497 49.995 C 17.835 50.542, 19.007 51.469, 20.101 52.054 C 21.929 53.032, 21.987 52.951, 20.805 51.060 C 20.098 49.927, 18.926 49, 18.200 49 C 17.475 49, 17.159 49.448, 17.497 49.995"/>
</svg>
