<svg xmlns="http://www.w3.org/2000/svg" width="64" height="64" viewBox="0 0 64 64">
  <path fill="currentColor" fill-rule="evenodd" clip-rule="evenodd" d="M 27.601 9.625 C 23.989 12.079, 23 13.794, 23 17.598 C 23 21.764, 20.589 27.996, 18.752 28.579 C 17.787 28.885, 16.533 30.005, 15.964 31.068 C 15.325 32.262, 13.874 33, 12.165 33 C 8.572 33, 6.995 34.672, 7.022 38.450 L 7.044 41.500 9.109 39 C 10.245 37.625, 10.880 37.067, 10.522 37.759 C 9.640 39.463, 10.852 43, 12.317 42.999 C 12.968 42.999, 13.556 41.761, 13.623 40.249 C 13.691 38.737, 13.541 38.063, 13.290 38.750 C 13.039 39.437, 12.405 40, 11.881 40 C 11.296 40, 11.315 39.280, 11.930 38.131 C 13.118 35.911, 12.408 34.906, 10.238 35.739 C 9.155 36.155, 8.911 35.952, 9.449 35.083 C 9.876 34.391, 11.108 34.057, 12.187 34.339 C 13.369 34.648, 14.957 34.043, 16.181 32.819 C 18.049 30.951, 18.345 30.917, 19.821 32.393 C 21.298 33.869, 21.248 34, 19.214 34 C 17.996 34, 17.053 34.337, 17.118 34.750 C 17.184 35.163, 17.152 36.625, 17.048 38 C 16.874 40.312, 16.795 40.349, 16 38.500 C 15.258 36.773, 15.131 36.904, 15.070 39.464 C 15.006 42.155, 15.144 42.284, 16.567 40.862 C 17.429 40, 18.259 38.441, 18.411 37.397 C 18.564 36.354, 19.434 35.355, 20.344 35.177 C 22.413 34.773, 22.478 37.912, 20.514 43.424 C 19.550 46.129, 19.420 47.916, 20.093 49.174 C 20.631 50.178, 21.269 51, 21.512 51 C 21.755 51, 21.926 49.313, 21.893 47.250 C 21.859 45.188, 22.152 41.992, 22.544 40.149 C 23.052 37.761, 23.503 37.186, 24.113 38.149 C 24.804 39.239, 24.972 39.246, 24.985 38.183 C 24.993 37.459, 23.787 35.276, 22.304 33.332 C 19.863 30.131, 19.769 29.709, 21.304 28.850 C 22.237 28.328, 23 26.939, 23 25.763 C 23 23.716, 23.120 23.741, 25.837 26.344 C 27.654 28.085, 29.272 28.833, 30.337 28.424 C 31.252 28.073, 32 27.352, 32 26.822 C 32 26.291, 32.658 25.199, 33.462 24.395 C 34.539 23.319, 34.678 22.283, 33.989 20.472 C 32.265 15.937, 29.787 13, 27.685 13 C 25.228 13, 26.190 11.801, 30.382 9.638 C 32.480 8.555, 33.954 8.412, 35.795 9.112 C 37.473 9.750, 38.675 9.725, 39.363 9.037 C 39.933 8.467, 40.846 8, 41.391 8 C 43.137 8, 38.569 10.935, 36.771 10.968 C 35.296 10.995, 35.208 11.363, 36.173 13.481 C 36.795 14.845, 38.143 16.228, 39.168 16.553 C 40.948 17.118, 40.932 17.290, 38.827 20.323 C 36.706 23.379, 36.702 23.431, 38.715 21.682 C 40.515 20.119, 41.112 20.048, 42.974 21.182 C 44.166 21.907, 46.059 24.525, 47.182 27 C 48.305 29.475, 49.938 32.309, 50.810 33.298 C 52.673 35.409, 53.242 38, 51.844 38 C 50.552 38, 51.806 42.011, 53.812 44.293 C 55.248 45.927, 55.246 46.032, 53.795 45.475 C 52.919 45.139, 51.905 45.344, 51.542 45.932 C 51.164 46.543, 51.677 47, 52.741 47 C 53.763 47, 55.140 47.540, 55.800 48.200 C 56.733 49.133, 57 48.924, 57 47.259 C 57 46.081, 56.552 44.841, 56.005 44.503 C 55.458 44.165, 54.513 42.959, 53.906 41.824 C 53.043 40.211, 53.076 39.929, 54.058 40.536 C 54.970 41.099, 55.160 40.721, 54.751 39.156 C 54.441 37.970, 54.595 37, 55.094 37 C 56.877 37, 55.956 35.301, 53.587 34.221 C 52.259 33.617, 50.874 32.082, 50.507 30.811 C 49.080 25.861, 46.916 22.175, 44.511 20.599 C 43.130 19.694, 42 18.320, 42 17.544 C 42 16.769, 41.100 15.849, 40 15.500 C 36.970 14.538, 37.598 12.418, 41.458 10.587 C 43.359 9.685, 45.137 8.587, 45.408 8.149 C 45.679 7.710, 42.537 7.350, 38.426 7.350 C 32.295 7.349, 30.348 7.758, 27.601 9.625 M 24.625 17.125 C 23.793 21.287, 23.834 22, 24.906 22 C 25.405 22, 25.577 21.100, 25.290 20 C 24.997 18.882, 25.259 18, 25.883 18 C 27.270 18, 27.365 21.657, 26 22.500 C 24.478 23.441, 24.790 24.388, 27.096 25.828 C 28.880 26.942, 29.475 26.880, 31.096 25.413 C 33.513 23.226, 33.493 21.321, 31.011 17.250 C 28.416 12.993, 25.463 12.936, 24.625 17.125 M 29 19.441 C 29 20.234, 29.450 21.160, 30 21.500 C 30.550 21.840, 31 21.191, 31 20.059 C 31 18.927, 30.550 18, 30 18 C 29.450 18, 29 18.648, 29 19.441 M 35.500 25 C 35.160 25.550, 35.359 26, 35.941 26 C 36.523 26, 37 25.550, 37 25 C 37 24.450, 36.802 24, 36.559 24 C 36.316 24, 35.840 24.450, 35.500 25 M 41.385 26.765 C 40.771 27.169, 39.945 28.538, 39.549 29.807 C 39.153 31.076, 37.770 32.517, 36.475 33.009 C 33.627 34.092, 31.836 37.116, 32.962 38.939 C 33.591 39.957, 34.069 39.739, 34.992 38.014 C 35.944 36.237, 35.939 35.920, 34.970 36.519 C 34.188 37.002, 33.901 36.796, 34.183 35.952 C 34.426 35.222, 35.208 34.431, 35.921 34.193 C 36.911 33.863, 37.054 34.721, 36.526 37.844 C 35.768 42.334, 36.657 45.150, 38.110 42.857 C 38.583 42.111, 38.969 40.825, 38.969 40 C 38.969 38.667, 38.862 38.667, 38 40 C 36.915 41.678, 36.653 40.067, 37.607 37.582 C 38.724 34.670, 40 35.959, 40 40 C 40 42.200, 40.378 44, 40.839 44 C 41.936 44, 44 39.435, 44 37.012 C 44 33.826, 45.829 33.769, 47.450 36.904 C 49.969 41.774, 51.098 41.445, 48.706 36.539 C 47.465 33.992, 45.326 31.444, 43.815 30.710 C 41.120 29.402, 41.194 27.797, 44 26.729 C 45.333 26.221, 45.333 26.151, 44 26.094 C 43.175 26.059, 41.998 26.361, 41.385 26.765 M 25.411 30.687 C 26.277 32.439, 27.439 34.153, 27.993 34.496 C 29.808 35.617, 28.979 33.560, 26.382 30.500 L 23.837 27.500 25.411 30.687 M 30 30 C 27.673 30.745, 27.651 30.808, 29.691 30.900 C 30.896 30.955, 32.160 30.550, 32.500 30 C 32.840 29.450, 32.979 29.045, 32.809 29.100 C 32.639 29.155, 31.375 29.560, 30 30 M 39.559 32.532 C 37.637 33.985, 37.637 34.015, 39.559 35.468 C 40.626 36.276, 41.785 36.951, 42.133 36.968 C 43.003 37.012, 44.023 32.847, 43.393 31.826 C 42.680 30.673, 41.804 30.834, 39.559 32.532 M 41 39.059 C 41 39.641, 41.450 39.840, 42 39.500 C 42.550 39.160, 43 38.684, 43 38.441 C 43 38.198, 42.550 38, 42 38 C 41.450 38, 41 38.477, 41 39.059 M 28.131 44.500 C 28.076 45.600, 28.429 47.129, 28.916 47.898 C 29.463 48.763, 29.362 49.773, 28.651 50.543 C 27.231 52.081, 26 51.448, 26 49.182 C 26 48.246, 25.100 46.919, 24 46.232 C 21.857 44.894, 21.273 45.873, 23.116 47.716 C 23.730 48.330, 24.753 49.878, 25.391 51.157 C 26.830 54.043, 30.325 55.074, 29.342 52.323 C 28.884 51.038, 29.622 51.367, 31.846 53.437 C 33.581 55.052, 35 56.053, 35 55.661 C 35 55.269, 36.392 55.668, 38.093 56.548 C 39.794 57.428, 41.430 57.903, 41.728 57.605 C 42.027 57.307, 41.535 55.939, 40.635 54.566 C 38.680 51.583, 38.548 50.592, 40.250 51.683 C 42.324 53.012, 48.001 54.809, 47.985 54.132 C 47.942 52.362, 46.153 51.004, 44.633 51.587 C 43.684 51.952, 42.165 51.590, 41.213 50.773 C 37.617 47.689, 36.880 47.667, 37.598 50.666 C 37.971 52.225, 38.719 54.063, 39.261 54.750 C 39.921 55.588, 38.968 55.471, 36.373 54.395 C 34.243 53.512, 32.373 52.673, 32.219 52.530 C 32.064 52.387, 31.737 51.230, 31.492 49.959 C 31.247 48.687, 30.638 47.389, 30.139 47.073 C 29.640 46.758, 29.007 45.600, 28.732 44.500 L 28.232 42.500 28.131 44.500 M 47.965 44.934 C 48.534 45.998, 49 47.308, 49 47.846 C 49 49.126, 46.306 48.706, 44.790 47.190 C 42.896 45.296, 41.992 45.805, 42.906 48.250 C 43.467 49.751, 44.425 50.401, 45.785 50.202 C 46.906 50.038, 48.114 50.376, 48.470 50.952 C 49.780 53.072, 50.943 51.909, 50.682 48.740 C 50.383 45.096, 49.369 43, 47.906 43 C 47.291 43, 47.313 43.717, 47.965 44.934 M 44 49.500 C 44 49.775, 44.225 50, 44.500 50 C 44.775 50, 45 49.775, 45 49.500 C 45 49.225, 44.775 49, 44.500 49 C 44.225 49, 44 49.225, 44 49.500"/>
</svg>
