<svg xmlns="http://www.w3.org/2000/svg" width="64" height="64" viewBox="0 0 64 64">
  <path fill="currentColor" fill-rule="evenodd" clip-rule="evenodd" d="M 28.975 9.565 C 28.439 10.976, 28 12.738, 28 13.482 C 28 14.225, 27.438 15.060, 26.750 15.338 C 25.900 15.681, 25.983 15.867, 27.009 15.921 C 29.047 16.028, 31.120 12.505, 30.324 10.290 C 29.971 9.305, 30.053 8.838, 30.508 9.250 C 31.222 9.899, 31.512 11.157, 31.917 15.367 C 31.962 15.843, 33.159 16.012, 34.576 15.741 C 35.993 15.470, 36.780 15.606, 36.326 16.043 C 35.461 16.875, 31.091 17.407, 27.231 17.151 C 25.402 17.029, 25.071 16.563, 25.526 14.750 C 25.850 13.454, 25.434 11.652, 24.544 10.500 C 23.096 8.626, 23.014 8.815, 23.249 13.500 C 23.387 16.250, 23.163 18.613, 22.750 18.750 C 21.495 19.168, 17.992 22.950, 18.118 23.750 C 18.713 27.517, 17.981 28.912, 9.993 39.231 C 8.523 41.131, 8.151 42.447, 8.770 43.554 C 9.658 45.139, 8.937 51.922, 7.527 55.250 C 6.900 56.732, 7.344 57, 10.428 57 C 12.431 57, 15.067 56.360, 16.285 55.578 C 17.503 54.796, 20.641 53.844, 23.259 53.463 C 27.822 52.799, 28.006 52.866, 27.759 55.107 C 27.565 56.852, 28.006 57.455, 29.500 57.488 C 30.600 57.512, 32.108 57.094, 32.851 56.560 C 34.689 55.237, 37 54.975, 37 56.088 C 37 56.590, 38.167 57, 39.594 57 C 42.128 57, 42.172 56.887, 41.506 52.044 C 40.990 48.290, 41.209 46.539, 42.412 44.822 C 43.930 42.655, 44 42.852, 44 49.277 L 44 56 48 56 C 50.200 56, 52 55.550, 52 55 C 52 54.450, 52.825 54, 53.833 54 C 56.730 54, 57.083 52.921, 55.038 50.321 C 53.693 48.611, 53.296 46.948, 53.676 44.609 C 54.007 42.572, 53.597 40.122, 52.606 38.204 C 51.723 36.497, 51 33.922, 51 32.484 C 51 31.045, 50.458 28.886, 49.796 27.684 C 49.134 26.483, 48.524 25.050, 48.440 24.500 C 47.980 21.486, 46.599 19, 45.383 19 C 44.623 19, 44 18.550, 44 18 C 44 17.450, 43.325 17, 42.500 17 C 41.675 17, 41 16.460, 41 15.800 C 41 14.919, 40.704 14.896, 39.887 15.713 C 38.625 16.975, 39.643 19.339, 41.069 18.457 C 41.581 18.141, 42 18.359, 42 18.941 C 42 19.523, 42.702 20, 43.559 20 C 44.416 20, 44.864 20.412, 44.553 20.915 C 44.242 21.418, 44.518 22.006, 45.167 22.222 C 45.816 22.439, 43.969 24.078, 41.064 25.865 C 38.159 27.653, 35.545 28.879, 35.256 28.589 C 34.966 28.299, 35.395 27.036, 36.209 25.781 C 37.023 24.527, 37.962 20.188, 38.296 16.139 C 38.889 8.939, 38.861 8.816, 36.991 10.508 C 35.940 11.460, 35.174 12.691, 35.290 13.244 C 35.405 13.797, 34.881 14.475, 34.125 14.750 C 33.273 15.060, 32.935 14.727, 33.238 13.875 C 33.710 12.545, 31.461 7, 30.450 7 C 30.175 7, 29.512 8.154, 28.975 9.565 M 34 13.500 C 34 13.775, 34.225 14, 34.500 14 C 34.775 14, 35 13.775, 35 13.500 C 35 13.225, 34.775 13, 34.500 13 C 34.225 13, 34 13.225, 34 13.500 M 30 15.500 C 30 15.775, 30.225 16, 30.500 16 C 30.775 16, 31 15.775, 31 15.500 C 31 15.225, 30.775 15, 30.500 15 C 30.225 15, 30 15.225, 30 15.500 M 23.426 20.500 C 20.142 23.666, 19.919 24.601, 21.906 26.891 C 23.550 28.788, 23.845 28.847, 24.402 27.394 C 24.750 26.488, 24.522 25.129, 23.895 24.373 C 23.037 23.340, 23.061 22.631, 23.991 21.511 C 25.230 20.018, 27 20.322, 27 22.028 C 27 22.528, 26.269 22.657, 25.376 22.314 C 23.930 21.759, 23.942 21.982, 25.491 24.345 C 27.419 27.289, 31.687 27.978, 32.638 25.500 C 32.955 24.675, 33.632 24, 34.142 24 C 34.653 24, 34.565 24.944, 33.948 26.097 C 33.038 27.797, 32.086 28.123, 28.913 27.820 C 26.239 27.565, 25 27.845, 25 28.705 C 25 30.097, 28.472 31.169, 31.367 30.670 C 33.269 30.342, 35.833 25.585, 36.629 20.908 C 37.063 18.359, 36.975 18.318, 31.285 18.408 C 26.944 18.477, 24.982 18.999, 23.426 20.500 M 32.244 20.664 C 31.553 20.943, 31.242 21.582, 31.553 22.085 C 32.403 23.460, 33.714 23.187, 34.362 21.500 C 34.950 19.965, 34.459 19.771, 32.244 20.664 M 39.405 22.155 C 38.962 22.870, 39.130 23.038, 39.845 22.595 C 40.998 21.883, 41.393 21, 40.559 21 C 40.316 21, 39.797 21.520, 39.405 22.155 M 37.770 29.381 C 32.977 31.765, 30.047 32.619, 27.589 32.348 C 23.940 31.946, 22.601 33.046, 22.537 36.499 C 22.506 38.162, 21.934 38.445, 19.145 38.172 C 14.768 37.744, 9.713 39.809, 10.448 41.725 C 10.752 42.516, 11.007 43.464, 11.015 43.832 C 11.024 44.199, 11.467 43.825, 12 43 C 12.646 42, 12.974 41.917, 12.985 42.750 C 12.994 43.487, 13.862 43.138, 15.100 41.900 C 17.721 39.279, 19.213 40.558, 18.154 44.516 C 17.424 47.248, 17.314 47.310, 16.785 45.287 C 16.270 43.317, 15.946 43.214, 13.671 44.287 C 11.916 45.116, 10.940 46.569, 10.512 48.993 C 10.172 50.922, 9.699 53.175, 9.461 54 C 9.153 55.067, 9.890 55.561, 12.014 55.710 C 13.656 55.825, 15 55.494, 15 54.974 C 15 54.454, 17.054 53.512, 19.565 52.879 C 22.794 52.066, 23.818 51.418, 23.065 50.665 C 20.997 48.597, 22.030 47.950, 24.189 49.961 C 25.392 51.082, 26.892 52, 27.521 52 C 28.150 52, 29.078 49.876, 29.582 47.279 C 30.363 43.264, 31.146 42.125, 34.818 39.667 L 39.137 36.776 37.068 34.849 C 33.866 31.866, 34.627 31.456, 38.221 34.228 C 44.154 38.803, 45.507 41.498, 45.427 48.574 C 45.356 54.837, 45.420 54.999, 47.927 54.970 C 50.157 54.943, 50.267 54.803, 48.750 53.920 C 47.788 53.359, 47.029 51.910, 47.063 50.700 L 47.127 48.500 48.031 50.750 C 48.690 52.390, 49.758 53, 51.968 53 C 54.815 53, 56.175 51.568, 54.025 50.833 C 53.488 50.650, 52.384 48.250, 51.571 45.500 C 50.292 41.171, 50.288 40.760, 51.547 42.441 C 53.400 44.917, 53.436 42.744, 51.600 39.194 C 50.831 37.706, 49.945 34.877, 49.632 32.908 C 48.790 27.612, 47.973 25.998, 46.143 26.017 C 45.239 26.026, 41.472 27.540, 37.770 29.381 M 18.607 29.582 C 17.664 32.038, 17.887 33.188, 19.155 32.405 C 19.870 31.962, 20.038 32.130, 19.595 32.845 C 18.621 34.421, 20.208 34.299, 22.502 32.622 C 24.240 31.351, 24.261 31.118, 22.765 29.622 C 20.718 27.575, 19.382 27.562, 18.607 29.582 M 16.493 33.989 C 16.843 34.555, 16.442 34.723, 15.552 34.382 C 14.546 33.996, 14 34.352, 14 35.393 C 14 36.277, 14.620 37, 15.378 37 C 17.074 37, 19.226 34.559, 18.325 33.658 C 17.290 32.623, 15.814 32.890, 16.493 33.989 M 43.921 36.360 C 45.252 37.808, 46.535 38.799, 46.771 38.563 C 47.488 37.845, 46.015 36.076, 43.694 34.870 C 41.602 33.782, 41.613 33.851, 43.921 36.360 M 20.166 35.876 C 19.092 36.557, 19.141 36.840, 20.416 37.329 C 21.418 37.714, 22 37.398, 22 36.469 C 22 34.769, 21.942 34.750, 20.166 35.876 M 26 36.383 C 26 36.594, 27.125 36.982, 28.500 37.245 C 29.875 37.508, 31 37.335, 31 36.861 C 31 36.388, 29.875 36, 28.500 36 C 27.125 36, 26 36.173, 26 36.383 M 37.571 39.571 C 36.707 40.436, 36.007 41.898, 36.015 42.821 C 36.029 44.271, 36.163 44.295, 37 43 C 37.805 41.755, 37.977 41.840, 38.016 43.500 C 38.063 45.473, 38.083 45.474, 39.532 43.559 C 40.590 42.160, 41.008 42.020, 41.030 43.059 C 41.052 44.097, 41.354 43.996, 42.109 42.698 C 42.862 41.405, 42.819 40.486, 41.957 39.448 C 40.422 37.598, 39.519 37.624, 37.571 39.571 M 23.703 42.402 C 24.691 43.723, 25.649 44.662, 25.831 44.488 C 26.455 43.891, 23.930 40, 22.918 40 C 22.362 40, 22.715 41.081, 23.703 42.402 M 17 42 C 17 42.733, 17.300 43.033, 17.667 42.667 C 18.033 42.300, 18.033 41.700, 17.667 41.333 C 17.300 40.967, 17 41.267, 17 42 M 33.101 41.927 C 31.703 42.801, 28.655 54.988, 29.597 55.931 C 30.549 56.882, 33.458 54.297, 34.128 51.905 L 34.801 49.500 34.900 51.872 C 34.984 53.864, 35.241 54.045, 36.500 53 C 37.746 51.966, 38 52.086, 38 53.711 C 38 54.807, 38.678 55.667, 39.543 55.667 C 40.463 55.667, 40.867 55.095, 40.543 54.252 C 40.244 53.473, 40 51.307, 40 49.437 C 40 46.667, 39.548 45.925, 37.557 45.425 C 36.214 45.088, 34.976 43.966, 34.807 42.932 C 34.589 41.597, 34.094 41.305, 33.101 41.927 M 12.079 49.583 C 12.127 50.748, 12.364 50.985, 12.683 50.188 C 12.972 49.466, 12.936 48.603, 12.604 48.271 C 12.272 47.939, 12.036 48.529, 12.079 49.583"/>
</svg>
