<svg xmlns="http://www.w3.org/2000/svg" width="64" height="64" viewBox="0 0 64 64">
  <path fill="currentColor" fill-rule="evenodd" clip-rule="evenodd" d="M 26.467 7.053 C 26.110 7.632, 25.336 7.945, 24.748 7.749 C 23.648 7.383, 19 11.173, 19 12.436 C 19 12.825, 18.325 13.818, 17.500 14.643 C 15.780 16.363, 15.536 18, 17 18 C 17.550 18, 18 17.564, 18 17.031 C 18 16.499, 18.675 16.322, 19.500 16.638 C 20.325 16.955, 21 17.891, 21 18.718 C 21 19.780, 21.607 19.528, 23.067 17.861 L 25.134 15.500 24.723 18.159 C 24.479 19.737, 24.757 20.732, 25.406 20.606 C 26.008 20.490, 25.488 20.843, 24.250 21.391 C 23.012 21.938, 22 22.749, 22 23.193 C 22 24.584, 25.696 24.072, 27 22.500 C 29.014 20.073, 30.188 20.784, 28.477 23.394 C 27.371 25.082, 26.258 25.647, 24.704 25.308 C 23.088 24.955, 22.864 25.084, 23.863 25.792 C 25.014 26.608, 25.014 26.853, 23.863 27.370 C 23.113 27.706, 23.512 27.730, 24.750 27.423 C 26.027 27.107, 27 27.327, 27 27.933 C 27 28.520, 26.137 29, 25.082 29 C 24.027 29, 22.339 29.309, 21.332 29.687 C 19.776 30.271, 19.690 30.141, 20.762 28.820 C 21.783 27.563, 21.768 27.052, 20.680 26.150 C 19.676 25.316, 18.851 25.401, 17.418 26.485 C 16.363 27.283, 14.600 27.944, 13.500 27.953 C 11.845 27.967, 11.759 27.802, 13 27 C 13.825 26.467, 14.050 26.017, 13.500 26 C 12.950 25.983, 13.175 25.492, 14 24.909 C 15.129 24.110, 15.191 23.722, 14.250 23.341 C 12.210 22.513, 12.830 21.143, 14.989 21.707 C 16.083 21.993, 16.731 22.626, 16.430 23.114 C 15.460 24.682, 18.087 24.057, 19.821 22.306 C 21.393 20.720, 21.389 20.654, 19.750 21.275 C 16.751 22.410, 15.031 21.069, 15.402 17.884 C 15.589 16.275, 15.350 14.717, 14.871 14.420 C 14.392 14.124, 13.933 14.471, 13.852 15.191 C 13.771 15.911, 13.630 17.175, 13.540 18 C 13.349 19.756, 12.258 22.750, 10.870 25.328 C 10.206 26.561, 10.240 27.584, 10.973 28.468 C 12.486 30.290, 17 31.051, 17 29.484 C 17 28.802, 17.675 27.685, 18.500 27 C 20.274 25.527, 20.423 26.340, 18.900 29.186 C 18.101 30.681, 18.101 31.056, 18.900 30.562 C 19.505 30.188, 20 30.332, 20 30.882 C 20 31.432, 19.550 32.160, 19 32.500 C 18.450 32.840, 18 32.737, 18 32.272 C 18 31.806, 17.100 31.358, 16 31.275 C 13.616 31.095, 13.416 32.270, 15.530 34.025 C 16.863 35.131, 16.604 35.621, 13.530 37.807 C 11.589 39.189, 10 40.698, 10 41.160 C 10 41.622, 11.676 42, 13.725 42 C 16.757 42, 18.058 41.315, 20.725 38.318 C 22.526 36.293, 24 34.216, 24 33.702 C 24 33.187, 24.926 33.009, 26.057 33.305 C 27.298 33.629, 27.970 33.409, 27.750 32.750 C 27.550 32.149, 26.399 31.585, 25.193 31.496 C 21.948 31.257, 21.232 30, 24.341 30 C 26.532 30, 27.308 29.270, 28.628 25.971 C 30.609 21.021, 33.202 19.345, 35.431 21.573 C 37.166 23.309, 37.518 26.562, 36.068 27.458 C 35.555 27.775, 34.993 26.789, 34.818 25.267 C 34.442 21.993, 32.632 21.570, 32.193 24.653 C 32.004 25.977, 32.721 27.391, 34.052 28.324 C 35.505 29.341, 35.935 30.278, 35.358 31.170 C 34.886 31.902, 34.500 33.400, 34.500 34.500 C 34.500 35.894, 33.939 36.404, 32.650 36.183 C 31.539 35.993, 31.063 36.293, 31.459 36.933 C 31.821 37.520, 31.810 38.498, 31.434 39.107 C 30.956 39.880, 30.467 39.805, 29.809 38.857 C 29.154 37.912, 29.061 38.182, 29.502 39.750 C 30.061 41.739, 29.771 42, 27.008 42 C 25.179 42, 24.138 41.585, 24.500 41 C 24.840 40.450, 25.604 40, 26.199 40 C 27.505 40, 29.718 37.340, 31.033 34.187 C 31.736 32.503, 31.582 31.145, 30.466 29.187 L 28.935 26.500 29.556 29.791 C 30.218 33.301, 28.493 36.910, 24.576 40.211 C 22.786 41.718, 22.707 42.098, 24 42.964 C 26.400 44.572, 28.767 44.167, 31.004 41.765 C 32.447 40.217, 33.993 39.626, 36.039 39.840 C 38.491 40.097, 39.176 39.670, 40.073 37.325 C 40.848 35.299, 40.847 34.005, 40.068 32.750 C 39.471 31.787, 39.186 31, 39.434 31 C 39.683 31, 41.509 31.958, 43.494 33.129 C 46.693 35.017, 47.029 35.591, 46.456 38.199 C 45.833 41.038, 45.927 41.130, 49.155 40.820 C 52.005 40.547, 52.485 40.130, 52.397 38 C 52.340 36.625, 52.002 34.712, 51.647 33.750 C 51.291 32.788, 50.778 31.296, 50.507 30.437 C 50.236 29.577, 49.608 29.124, 49.112 29.431 C 48.275 29.948, 47 27.892, 47 26.027 C 47 25.581, 48.073 24.947, 49.385 24.618 C 51.109 24.186, 51.897 23.155, 52.227 20.904 C 52.582 18.485, 52.107 17.253, 50.103 15.394 C 47.107 12.617, 45.514 12.291, 46.416 14.641 C 47.487 17.434, 46.059 20, 43.433 20 C 42.095 20, 41 19.602, 41 19.117 C 41 18.631, 40.098 17.997, 38.996 17.709 C 37.745 17.382, 37.203 16.636, 37.552 15.724 C 37.911 14.790, 37.325 14.057, 35.927 13.691 C 34.456 13.307, 33.936 12.609, 34.339 11.560 C 34.781 10.406, 34.294 10, 32.469 10 C 29.768 10, 29.342 9.058, 31.200 7.200 C 32.133 6.267, 31.813 6, 29.759 6 C 28.306 6, 26.825 6.474, 26.467 7.053 M 26.028 8.944 C 24.668 9.989, 23.253 10.656, 22.883 10.428 C 21.901 9.821, 20.878 12.993, 21.651 14.245 C 22.039 14.872, 21.835 15.016, 21.155 14.595 C 20.520 14.203, 20 14.332, 20 14.882 C 20 16.665, 21.741 17.017, 23.009 15.489 C 24.839 13.284, 26 13.677, 26 16.500 C 26 19.213, 27.718 19.897, 28.621 17.545 C 29.060 16.401, 29.460 16.347, 30.490 17.295 C 31.486 18.212, 31.525 18.838, 30.650 19.914 C 29.677 21.110, 29.843 21.145, 31.727 20.141 C 33.604 19.141, 34.274 19.274, 35.985 20.985 C 37.736 22.736, 37.927 23.805, 37.372 28.758 C 37.017 31.916, 36.226 35.149, 35.614 35.942 C 34.724 37.094, 34.801 37.206, 36 36.500 C 37.294 35.738, 37.311 35.849, 36.128 37.308 C 34.947 38.763, 34.977 39, 36.342 39 C 38.181 39, 40.620 35.048, 39.353 34.123 C 37.966 33.110, 37.970 31.270, 39.363 30.114 C 40.324 29.316, 41.214 29.551, 42.789 31.018 C 43.959 32.108, 45.313 33, 45.798 33 C 46.282 33, 47.192 34.125, 47.818 35.500 C 48.696 37.427, 48.675 38.016, 47.729 38.070 C 47.053 38.109, 47.400 38.503, 48.500 38.945 C 49.600 39.388, 50.800 39.578, 51.167 39.367 C 51.534 39.157, 51.373 37.315, 50.810 35.274 C 49.810 31.652, 47.234 28.737, 45.811 29.617 C 45.420 29.858, 44.575 29.075, 43.934 27.876 C 42.918 25.979, 42.991 25.783, 44.495 26.360 C 45.794 26.858, 46.071 26.628, 45.611 25.430 C 45.275 24.553, 45 23.648, 45 23.418 C 45 23.188, 44.298 23, 43.441 23 C 42.584 23, 42.131 22.597, 42.435 22.105 C 42.868 21.405, 40.969 20, 39.591 20 C 39.457 20, 39.539 21.309, 39.773 22.910 C 40.008 24.510, 39.713 26.647, 39.117 27.660 C 38.243 29.145, 38.153 28.866, 38.650 26.209 C 39.406 22.172, 36.575 15.317, 33.786 14.432 C 32.650 14.072, 32.078 13.239, 32.396 12.410 C 32.774 11.425, 32.172 11, 30.401 11 C 28.320 11, 27.979 10.641, 28.500 9 C 28.849 7.900, 28.992 7.010, 28.817 7.022 C 28.643 7.034, 27.388 7.899, 26.028 8.944 M 27 14.500 C 27 14.775, 27.225 15, 27.500 15 C 27.775 15, 28 14.775, 28 14.500 C 28 14.225, 27.775 14, 27.500 14 C 27.225 14, 27 14.225, 27 14.500 M 31 15.500 C 31 15.775, 31.225 16, 31.500 16 C 31.775 16, 32 15.775, 32 15.500 C 32 15.225, 31.775 15, 31.500 15 C 31.225 15, 31 15.225, 31 15.500 M 48 16.929 C 48 17.989, 47.401 19.456, 46.670 20.188 C 44.950 21.907, 45.662 24, 47.967 24 C 50.171 24, 51.188 20.625, 49.959 17.393 C 48.861 14.505, 48 14.301, 48 16.929 M 33.333 16.667 C 33.700 17.033, 34.300 17.033, 34.667 16.667 C 35.033 16.300, 34.733 16, 34 16 C 33.267 16, 32.967 16.300, 33.333 16.667 M 29 18.500 C 29 18.775, 29.225 19, 29.500 19 C 29.775 19, 30 18.775, 30 18.500 C 30 18.225, 29.775 18, 29.500 18 C 29.225 18, 29 18.225, 29 18.500 M 26 24.500 C 26 24.775, 26.225 25, 26.500 25 C 26.775 25, 27 24.775, 27 24.500 C 27 24.225, 26.775 24, 26.500 24 C 26.225 24, 26 24.225, 26 24.500 M 33 25.500 C 33 25.775, 33.225 26, 33.500 26 C 33.775 26, 34 25.775, 34 25.500 C 34 25.225, 33.775 25, 33.500 25 C 33.225 25, 33 25.225, 33 25.500 M 16.887 36.100 C 13.103 40.246, 12.730 41, 14.461 41 C 15.586 41, 17.855 39.561, 19.503 37.802 C 21.151 36.043, 21.825 34.957, 21 35.388 C 20.175 35.820, 20.567 35.304, 21.872 34.241 C 23.718 32.736, 23.924 32.185, 22.801 31.754 C 21.911 31.412, 19.644 33.079, 16.887 36.100 M 35 32.500 C 35 32.775, 35.225 33, 35.500 33 C 35.775 33, 36 32.775, 36 32.500 C 36 32.225, 35.775 32, 35.500 32 C 35.225 32, 35 32.225, 35 32.500 M 16.872 37.750 C 15.629 39.336, 15.664 39.371, 17.250 38.128 C 18.212 37.373, 19 36.585, 19 36.378 C 19 35.555, 18.179 36.084, 16.872 37.750 M 30 37.500 C 30 37.775, 30.225 38, 30.500 38 C 30.775 38, 31 37.775, 31 37.500 C 31 37.225, 30.775 37, 30.500 37 C 30.225 37, 30 37.225, 30 37.500 M 26.483 59.389 C 24.793 60.625, 25.324 60.778, 31.301 60.778 C 34.996 60.778, 38.297 60.328, 38.637 59.778 C 39.026 59.148, 37.542 58.915, 34.628 59.146 C 32.082 59.349, 30 59.174, 30 58.757 C 30 57.598, 28.585 57.852, 26.483 59.389"/>
</svg>
