<svg xmlns="http://www.w3.org/2000/svg" width="64" height="64" viewBox="0 0 64 64">
  <path fill="currentColor" fill-rule="evenodd" clip-rule="evenodd" d="M 8.200 5.200 C 6.644 6.756, 6.666 8.722, 8.246 9.249 C 8.931 9.477, 9.493 10.527, 9.496 11.582 C 9.498 12.819, 10.197 13.501, 11.463 13.503 C 14.055 13.506, 15.896 19.336, 14.175 22.092 C 12.587 24.634, 12.697 27.123, 14.513 29.715 C 16.201 32.124, 18.470 46.761, 17.744 50.557 C 17.358 52.575, 17.677 53, 19.580 53 C 20.846 53, 22.130 53.401, 22.433 53.891 C 23.203 55.138, 55.512 53.821, 56.845 52.489 C 57.196 52.137, 56.812 51.447, 55.992 50.953 C 52.462 48.832, 52.103 48.323, 52.651 46.225 C 52.968 45.014, 53.626 44.269, 54.114 44.570 C 54.601 44.872, 55.039 44.754, 55.086 44.309 C 55.920 36.455, 55.695 35.404, 51.348 26.846 C 50.607 25.386, 50 23.459, 50 22.564 C 50 21.669, 49.325 20.678, 48.500 20.362 C 47.675 20.045, 47 18.709, 47 17.393 C 47 16.077, 46.583 15, 46.073 15 C 45.564 15, 44.484 13.672, 43.675 12.050 C 42.618 9.932, 42.527 8.985, 43.351 8.696 C 44.901 8.151, 41.191 4, 39.154 4 C 37.956 4, 38.045 4.324, 39.559 5.468 C 40.694 6.327, 40.971 6.950, 40.227 6.968 C 39.297 6.991, 39.415 7.742, 40.662 9.750 C 41.601 11.262, 43.265 13.512, 44.359 14.750 L 46.349 17 44 19.500 C 41.264 22.412, 39.790 22.747, 40.701 20.250 C 41.274 18.679, 41.117 18.695, 39.170 20.405 C 36.567 22.690, 36.444 23.151, 38.664 22.299 C 39.900 21.824, 40.119 22.025, 39.515 23.080 C 37.964 25.790, 34.645 29, 33.394 29 C 32.702 29, 31.175 27.650, 30 26 C 28.825 24.350, 28.198 23, 28.606 23 C 29.015 23, 28.358 21.946, 27.148 20.658 C 25.377 18.773, 25.136 17.846, 25.910 15.908 L 26.873 13.500 26.937 16.076 C 26.971 17.492, 28.110 19.694, 29.467 20.969 L 31.935 23.287 35.467 20.593 C 37.410 19.111, 39 17.201, 39 16.349 C 39 15.497, 37.419 13.219, 35.487 11.287 C 32.874 8.674, 31.400 7.918, 29.737 8.336 C 27.693 8.850, 27.742 8.687, 30.306 6.450 C 33.415 3.735, 32.694 3.125, 29.237 5.547 C 26.358 7.563, 23.293 17.638, 24.816 20.077 C 25.403 21.016, 25.571 22.095, 25.191 22.476 C 24.811 22.856, 24.500 23.686, 24.500 24.320 C 24.500 24.954, 23.712 25.624, 22.750 25.810 C 21.566 26.038, 21 25.515, 21 24.196 C 21 23.123, 20.315 21.677, 19.478 20.982 C 17.416 19.271, 17.808 12.910, 19.954 13.253 C 20.916 13.407, 21.500 12.744, 21.500 11.500 C 21.500 10.400, 21.876 8.918, 22.336 8.206 C 23.514 6.383, 21.446 4.250, 18.500 4.250 C 15.746 4.250, 13.480 6.350, 14.483 7.973 C 15.483 9.590, 17.223 8.024, 16.509 6.149 C 16.025 4.876, 16.154 4.770, 17.074 5.683 C 18.705 7.302, 17.410 10.229, 15.253 9.796 C 14.101 9.565, 13.512 8.538, 13.534 6.797 C 13.552 5.341, 13.215 4.367, 12.784 4.634 C 11.597 5.367, 11.845 8.445, 13.200 9.800 C 13.860 10.460, 15.221 11, 16.225 11 C 17.457 11, 18.247 10.015, 18.657 7.965 C 19.384 4.328, 20.500 5.004, 20.500 9.083 C 20.500 11.194, 20.017 12, 18.750 12 C 17.788 12, 17 12.675, 17 13.500 C 17 15.441, 15.383 15.441, 14.638 13.500 C 14.322 12.675, 13.122 12, 11.972 12 C 10.650 12, 10.143 11.577, 10.594 10.848 C 10.985 10.215, 10.476 9.090, 9.462 8.348 C 8.447 7.607, 8.106 7, 8.702 7 C 9.298 7, 10.045 6.325, 10.362 5.500 C 11.053 3.699, 9.866 3.534, 8.200 5.200 M 29.500 9.765 C 28.122 10.777, 27.779 13, 29 13 C 30.443 13, 30.233 15.752, 28.750 16.271 C 27.851 16.585, 28.035 17.310, 29.405 18.854 C 30.453 20.034, 31.837 21, 32.481 21 C 33.125 21, 34.661 19.926, 35.894 18.613 L 38.137 16.225 34.965 12.613 C 31.644 8.831, 31.134 8.565, 29.500 9.765 M 32.667 13.667 C 31.516 14.817, 31.938 16, 33.500 16 C 34.325 16, 35 15.325, 35 14.500 C 35 12.938, 33.817 12.516, 32.667 13.667 M 42 16 C 42 16.733, 42.300 17.033, 42.667 16.667 C 43.033 16.300, 43.033 15.700, 42.667 15.333 C 42.300 14.967, 42 15.267, 42 16 M 16.195 18.500 C 16.215 20.150, 16.439 20.704, 16.693 19.731 C 16.947 18.758, 16.930 17.408, 16.656 16.731 C 16.382 16.054, 16.175 16.850, 16.195 18.500 M 39.037 25.648 C 34.275 30.672, 33.867 31.430, 35.342 32.508 C 37.547 34.120, 37.445 36.692, 35.126 37.933 C 33.703 38.694, 32.865 38.508, 31.646 37.161 C 30.172 35.532, 30.172 35.199, 31.653 33.085 C 33.006 31.154, 33.043 30.644, 31.883 29.923 C 30.814 29.259, 30.239 30.248, 29.347 34.282 C 27.322 43.451, 26.134 46.202, 22.986 49.012 L 19.908 51.760 23.320 52.400 C 25.196 52.752, 27.497 52.746, 28.433 52.387 C 29.369 52.028, 31.303 52.357, 32.731 53.117 C 34.472 54.044, 35.446 54.146, 35.688 53.427 C 35.886 52.837, 37.388 52.550, 39.024 52.790 C 40.805 53.052, 42 52.780, 42 52.113 C 42 51.501, 41.172 51, 40.161 51 C 38.126 51, 35.956 47.122, 36.079 43.703 C 36.134 42.158, 36.591 42.694, 37.607 45.500 C 38.728 48.594, 39.981 49.927, 43.136 51.384 C 46.238 52.816, 47.397 52.976, 47.970 52.049 C 48.384 51.378, 49.011 50.868, 49.362 50.915 C 49.713 50.962, 50.761 51, 51.691 51 C 53.179 51, 53.154 50.833, 51.483 49.611 C 50.438 48.847, 49.002 48.446, 48.292 48.718 C 47.492 49.025, 47 48.424, 47 47.138 C 47 45.652, 46.549 45.236, 45.410 45.673 C 44.025 46.204, 43.911 45.557, 44.526 40.641 C 45.013 36.737, 44.887 35, 44.115 35 C 43.502 35, 43 34.114, 43 33.031 C 43 31.692, 43.480 31.247, 44.500 31.638 C 45.541 32.038, 46 31.569, 46 30.107 C 46 28.667, 46.633 28, 48 28 C 50.352 28, 50.367 27.929, 48.770 24.297 C 47.606 21.648, 46.178 20.049, 44.945 20.015 C 44.640 20.007, 41.981 22.542, 39.037 25.648 M 15.031 23.463 C 13.366 25.468, 14.703 29, 17.126 29 C 18.222 29, 18.835 28.543, 18.490 27.984 C 18.144 27.425, 17.330 27.239, 16.681 27.570 C 16.031 27.902, 16.618 27.265, 17.985 26.155 C 19.352 25.045, 20.139 23.806, 19.735 23.402 C 19.331 22.997, 19 23.192, 19 23.833 C 19 24.475, 18.212 24.993, 17.250 24.985 C 15.887 24.973, 15.800 24.779, 16.857 24.110 C 17.681 23.587, 17.824 23.009, 17.220 22.636 C 16.674 22.298, 15.688 22.670, 15.031 23.463 M 25.963 24 C 25.716 27.680, 25.067 31.266, 24.556 31.777 C 24.250 32.083, 24 31.610, 24 30.726 C 24 29.841, 23.474 28.793, 22.830 28.395 C 22.033 27.902, 21.873 28.227, 22.329 29.415 C 22.697 30.374, 22.701 32.344, 22.337 33.793 C 21.734 36.195, 21.608 36.254, 20.908 34.464 C 20.228 32.723, 20.134 32.784, 20.086 35 C 20.055 36.375, 20.411 38.101, 20.877 38.835 C 21.509 39.832, 21.884 39.579, 22.361 37.835 C 22.778 36.312, 23.263 35.905, 23.756 36.665 C 24.321 37.534, 24.984 37.485, 26.373 36.469 C 28.913 34.612, 29.682 27.178, 27.610 24.500 C 26.426 22.969, 26.040 22.852, 25.963 24 M 31 24.393 C 31 25.342, 33.993 25.820, 34.527 24.956 C 34.852 24.430, 34.191 24, 33.059 24 C 31.927 24, 31 24.177, 31 24.393 M 20.158 30 C 20.158 31.375, 20.385 31.938, 20.662 31.250 C 20.940 30.563, 20.940 29.438, 20.662 28.750 C 20.385 28.063, 20.158 28.625, 20.158 30 M 40.508 32.322 C 40.768 34.975, 41.460 37.900, 42.044 38.822 C 42.895 40.164, 43.010 39.900, 42.622 37.500 C 42.356 35.850, 41.664 32.925, 41.086 31 C 40.074 27.632, 40.052 27.682, 40.508 32.322 M 47.571 30.571 C 46.707 31.436, 46 32.802, 46 33.607 C 46 34.742, 46.432 34.839, 47.928 34.039 C 48.988 33.471, 50.578 33.284, 51.461 33.623 C 52.856 34.159, 52.910 33.897, 51.873 31.620 C 50.491 28.587, 49.739 28.404, 47.571 30.571 M 17.390 31.500 C 17.657 32.600, 18.182 36.994, 18.556 41.264 C 18.931 45.535, 19.682 49.304, 20.226 49.640 C 20.804 49.997, 20.988 49.472, 20.668 48.375 C 20.368 47.344, 19.816 43.350, 19.441 39.500 C 19.066 35.650, 18.342 31.825, 17.832 31 C 17.112 29.836, 17.013 29.948, 17.390 31.500 M 32.374 34.469 C 32.071 35.258, 32.128 36.398, 32.500 37.001 C 32.986 37.787, 33.577 37.766, 34.589 36.926 C 36.417 35.409, 36.376 34.358, 34.462 33.624 C 33.599 33.293, 32.682 33.664, 32.374 34.469 M 38 33.500 C 38 33.775, 38.225 34, 38.500 34 C 38.775 34, 39 33.775, 39 33.500 C 39 33.225, 38.775 33, 38.500 33 C 38.225 33, 38 33.225, 38 33.500 M 33 35 C 33 35.733, 33.300 36.033, 33.667 35.667 C 34.033 35.300, 34.033 34.700, 33.667 34.333 C 33.300 33.967, 33 34.267, 33 35 M 46.667 35.667 C 45.364 36.969, 46.039 37.500, 49 37.500 C 50.650 37.500, 52.032 37.050, 52.070 36.500 C 52.109 35.950, 52.527 36.400, 53 37.500 C 53.820 39.408, 53.863 39.397, 53.930 37.250 C 53.989 35.353, 53.478 35, 50.667 35 C 48.833 35, 47.033 35.300, 46.667 35.667 M 38 36.500 C 38 36.775, 38.225 37, 38.500 37 C 38.775 37, 39 36.775, 39 36.500 C 39 36.225, 38.775 36, 38.500 36 C 38.225 36, 38 36.225, 38 36.500 M 24.057 39.812 C 21.206 42.192, 20.796 43.049, 21.386 45.400 C 21.961 47.694, 22.336 47.966, 23.541 46.966 C 24.344 46.300, 25 45.113, 25 44.328 C 25 43.543, 25.687 41.573, 26.526 39.950 C 27.365 38.328, 27.910 37, 27.738 37 C 27.566 37, 25.909 38.265, 24.057 39.812 M 46.615 40.465 C 44.611 43.523, 44.589 44.095, 46.500 43.362 C 47.568 42.952, 48.009 43.465, 48.030 45.143 C 48.059 47.323, 48.142 47.359, 49.147 45.630 C 50.034 44.105, 50.409 44.012, 51.188 45.130 C 51.854 46.087, 52.023 45.528, 51.748 43.274 C 51.477 41.058, 51.704 40.276, 52.474 40.774 C 53.090 41.173, 52.736 40.712, 51.686 39.750 C 50.637 38.788, 49.430 38, 49.004 38 C 48.578 38, 47.503 39.109, 46.615 40.465 M 30.500 41 C 30.125 42.183, 30.042 43.376, 30.317 43.651 C 30.592 43.926, 31.125 43.183, 31.500 42 C 31.875 40.817, 31.958 39.624, 31.683 39.349 C 31.408 39.074, 30.875 39.817, 30.500 41 M 33 48 C 33 48.733, 33.300 49.033, 33.667 48.667 C 34.033 48.300, 34.033 47.700, 33.667 47.333 C 33.300 46.967, 33 47.267, 33 48 M 27.564 49.707 C 27.022 51.132, 27.136 51.247, 28.124 50.267 C 28.808 49.588, 29.115 48.781, 28.807 48.474 C 28.499 48.166, 27.940 48.721, 27.564 49.707"/>
</svg>
