<svg xmlns="http://www.w3.org/2000/svg" width="64" height="64" viewBox="0 0 64 64">
  <path fill="currentColor" fill-rule="evenodd" clip-rule="evenodd" d="M 24.404 9.389 C 24.111 10.154, 23.062 10.567, 22.073 10.309 C 21.029 10.036, 20.024 10.494, 19.676 11.403 C 19.327 12.312, 18.432 12.719, 17.538 12.376 C 16.454 11.960, 16 12.408, 16 13.893 C 16 15.052, 15.550 16, 15 16 C 13.620 16, 13.739 20.339, 15.158 21.758 C 15.979 22.579, 16.007 23.291, 15.255 24.208 C 14.672 24.918, 13.684 27.413, 13.059 29.750 C 12.234 32.836, 11.409 34, 10.047 34 C 8.855 34, 7.228 35.687, 5.585 38.626 C 4.163 41.170, 3 43.782, 3 44.430 C 3 45.910, 9.207 52, 10.715 52 C 12.389 52, 18.025 41.735, 17.017 40.521 C 16.528 39.932, 16.740 38.708, 17.514 37.650 C 18.256 36.636, 18.648 35.246, 18.386 34.563 C 18.124 33.880, 18.604 32.743, 19.454 32.038 C 20.305 31.332, 21 29.884, 21 28.819 C 21 27.753, 21.453 27.162, 22.008 27.505 C 22.562 27.847, 23.679 27.464, 24.490 26.653 C 25.325 25.818, 26.877 25.417, 28.067 25.728 C 29.687 26.152, 29.863 26.484, 28.835 27.180 C 27.764 27.905, 27.796 28.052, 29 27.923 C 29.825 27.835, 31.738 27.816, 33.250 27.882 C 36.696 28.030, 36.914 30.554, 33.554 31.397 C 31.318 31.958, 31.198 32.269, 32.152 35.006 C 32.726 36.652, 33.859 38, 34.669 38 C 35.926 38, 35.911 38.231, 34.571 39.571 C 33.707 40.436, 33 41.352, 33 41.607 C 33 41.862, 33.712 43.158, 34.583 44.486 C 35.484 45.861, 35.894 47.759, 35.535 48.890 C 34.672 51.608, 38.134 53.534, 41.064 51.966 C 42.736 51.071, 43.007 50.256, 42.490 47.680 C 41.596 43.231, 39.039 37.858, 38.094 38.442 C 37.010 39.112, 33 35.248, 33 33.534 C 33 31.232, 36.381 31.293, 38.250 33.629 C 39.212 34.832, 40 36.350, 40 37.003 C 40 39.394, 43.453 43.945, 46.100 45.041 C 49.113 46.289, 51.312 45.523, 54.350 42.166 C 58.385 37.707, 58.328 28.064, 54.237 23.069 C 51.837 20.139, 46.655 19.618, 44.425 22.083 C 42.589 24.112, 40 24.663, 40 23.026 C 40 21.868, 45.265 19, 47.391 19 C 49.880 19, 50.205 17.156, 48.043 15.304 C 46.919 14.343, 46 12.725, 46 11.710 C 46 10.344, 45.500 10.024, 44.074 10.476 C 42.828 10.872, 41.813 10.489, 41.198 9.389 C 39.939 7.140, 36.652 8.315, 37.408 10.745 C 37.709 11.710, 37.472 13.175, 36.883 14 C 35.989 15.251, 35.908 15.201, 36.395 13.697 C 36.743 12.621, 36.175 11.031, 34.989 9.758 C 33.299 7.943, 33 7.876, 33 9.311 C 33 10.613, 32.089 11, 29.031 11 C 25.915 11, 25.186 10.678, 25.638 9.500 C 25.955 8.675, 25.927 8, 25.576 8 C 25.224 8, 24.697 8.625, 24.404 9.389 M 27 9.059 C 27 9.641, 27.450 9.840, 28 9.500 C 28.550 9.160, 29 8.684, 29 8.441 C 29 8.198, 28.550 8, 28 8 C 27.450 8, 27 8.477, 27 9.059 M 38.917 9.250 C 38.871 9.387, 38.704 10.400, 38.546 11.500 C 38.387 12.600, 37.927 14.287, 37.522 15.250 C 37.011 16.466, 37.244 17, 38.286 17 C 40.366 17, 41.212 19.705, 39.355 20.417 C 37.135 21.269, 37.020 21.211, 36.031 18.750 C 35.419 17.227, 35.106 17.026, 35.063 18.128 C 35.029 19.023, 35.642 20.288, 36.427 20.939 C 37.561 21.880, 38.949 21.496, 43.177 19.071 C 46.105 17.392, 47.813 16.015, 46.973 16.009 C 46.132 16.004, 44.332 16.711, 42.973 17.580 L 40.500 19.160 42.819 17.114 C 44.649 15.499, 44.919 14.692, 44.099 13.284 C 43.528 12.303, 43.047 12.063, 43.030 12.750 C 43.010 13.577, 42.377 13.408, 41.159 12.250 C 40.146 11.287, 39.497 10.162, 39.718 9.750 C 39.938 9.338, 39.866 9, 39.559 9 C 39.252 9, 38.962 9.113, 38.917 9.250 M 21 11.500 C 21 11.775, 21.225 12, 21.500 12 C 21.775 12, 22 11.775, 22 11.500 C 22 11.225, 21.775 11, 21.500 11 C 21.225 11, 21 11.225, 21 11.500 M 27.015 12.809 C 27.007 13.529, 26.550 13.840, 26 13.500 C 25.450 13.160, 25 13.290, 25 13.789 C 25 15.271, 31.171 14.994, 33.420 13.411 C 35.444 11.986, 35.446 11.955, 33.500 12.252 C 32.400 12.420, 30.887 12.940, 30.138 13.407 C 29.281 13.942, 28.453 13.746, 27.904 12.878 C 27.218 11.796, 27.027 11.782, 27.015 12.809 M 19.882 15.250 C 19.816 16.488, 19.846 18.108, 19.948 18.850 C 20.062 19.678, 19.661 19.908, 18.912 19.446 C 18.132 18.963, 17.948 19.108, 18.405 19.845 C 18.797 20.480, 18.668 21, 18.118 21 C 16.335 21, 15.983 19.259, 17.511 17.991 C 19.105 16.668, 19.545 14, 18.169 14 C 17.712 14, 16.729 15.138, 15.984 16.530 C 14.825 18.695, 14.847 19.276, 16.138 20.566 C 18.606 23.034, 20.759 21.366, 20.820 16.938 C 20.877 12.799, 20.086 11.376, 19.882 15.250 M 21.755 15.500 C 21.492 16.875, 21.612 18, 22.022 18 C 22.432 18, 22.982 16.875, 23.245 15.500 C 23.508 14.125, 23.388 13, 22.978 13 C 22.568 13, 22.018 14.125, 21.755 15.500 M 32.971 15.039 C 32.162 15.551, 30.488 15.976, 29.250 15.985 C 28.012 15.993, 27 16.499, 27 17.108 C 27 17.806, 28.020 17.980, 29.750 17.578 C 31.790 17.104, 32.113 17.201, 31 17.954 C 30.175 18.513, 28.683 18.976, 27.684 18.985 C 26.307 18.996, 25.944 19.644, 26.184 21.663 C 26.435 23.781, 27.379 24.646, 30.788 25.884 C 33.885 27.009, 35.536 27.152, 36.729 26.399 C 38.978 24.981, 39.509 23, 37.640 23 C 36.800 23, 35.413 22, 34.557 20.777 C 33.327 19.022, 33 18.905, 33 20.221 C 33 21.137, 34 22.587, 35.223 23.443 C 36.445 24.299, 36.965 25, 36.377 25 C 35.790 25, 34.479 24.082, 33.463 22.959 C 31.684 20.993, 31.682 20.809, 33.406 17.890 C 35.373 14.560, 35.228 13.612, 32.971 15.039 M 24.435 16.895 C 24.740 17.388, 24.316 18.048, 23.494 18.364 C 21.790 19.018, 21.367 26, 23.031 26 C 24.228 26, 24.633 24.908, 25.352 19.750 C 25.655 17.577, 25.455 16, 24.878 16 C 24.330 16, 24.131 16.403, 24.435 16.895 M 37 19 C 37 19.550, 37.450 20, 38 20 C 38.550 20, 39 19.550, 39 19 C 39 18.450, 38.550 18, 38 18 C 37.450 18, 37 18.450, 37 19 M 18.750 22.689 C 17.788 22.941, 17 23.541, 17 24.024 C 17 24.506, 17.788 25.394, 18.750 25.998 C 20.260 26.945, 20.192 27.011, 18.250 26.480 C 15.662 25.773, 15.158 27.463, 17.670 28.427 C 19.608 29.171, 20.963 27.464, 20.985 24.250 C 20.993 23.012, 20.887 22.052, 20.750 22.116 C 20.613 22.180, 19.712 22.438, 18.750 22.689 M 44.186 24.491 C 43.108 25.862, 41.931 28.555, 41.570 30.476 C 40.700 35.114, 42.526 41.555, 45.251 43.463 C 48.658 45.849, 49.840 45.263, 46.699 42.745 C 41.831 38.843, 41.280 29.663, 45.625 24.862 C 47.746 22.518, 51.349 22.464, 53.079 24.750 C 54.206 26.239, 54.194 26.313, 53.002 25.250 C 50.804 23.290, 47.190 23.777, 45.588 26.250 C 42.912 30.381, 43.119 38.119, 45.982 40.982 C 47.605 42.605, 48.465 42.785, 50.732 41.976 C 53.320 41.053, 53.374 41.086, 51.559 42.494 C 50.491 43.322, 50.127 44, 50.750 44 C 53.098 44, 53.999 40.916, 54.399 31.500 C 54.575 27.346, 54.198 24.962, 53.172 23.750 C 50.983 21.165, 46.512 21.534, 44.186 24.491 M 38.036 26.457 C 36.995 27.711, 37.008 28.604, 38.108 31.249 L 39.458 34.500 40.135 30.500 C 40.899 25.987, 39.947 24.154, 38.036 26.457 M 50.037 26.510 C 50.016 27.066, 48.850 28.761, 47.444 30.277 C 44.888 33.033, 44.888 33.034, 46.801 35.767 C 47.854 37.270, 48.498 39.175, 48.232 40 C 47.932 40.935, 48.085 41.124, 48.640 40.500 C 49.129 39.950, 50.570 38.309, 51.842 36.854 L 54.153 34.208 52.113 29.854 C 50.991 27.459, 50.057 25.955, 50.037 26.510 M 25.333 27.667 C 25.700 28.033, 26.300 28.033, 26.667 27.667 C 27.033 27.300, 26.733 27, 26 27 C 25.267 27, 24.967 27.300, 25.333 27.667 M 14.631 28.702 C 13.457 29.876, 13.990 32.782, 15.485 33.356 C 16.352 33.689, 17.397 33.127, 17.997 32.005 C 18.811 30.485, 18.632 29.874, 17.144 29.077 C 16.110 28.523, 14.979 28.355, 14.631 28.702 M 27.750 28.811 C 26.238 28.988, 24.993 29.665, 24.985 30.316 C 24.974 31.139, 24.718 31.104, 24.146 30.203 C 22.908 28.251, 20.880 31.148, 20.481 35.438 C 20.302 37.363, 19.843 39.445, 19.460 40.065 C 19.077 40.684, 19.376 42.333, 20.123 43.730 C 21.358 46.037, 21.277 46.404, 19.241 47.756 C 18.008 48.574, 17 49.864, 17 50.622 C 17 52.110, 19.835 52.383, 24.854 51.379 C 28.077 50.735, 28.080 50.727, 28 43.225 C 27.978 41.195, 28.541 39.730, 29.482 39.368 C 30.366 39.029, 30.943 37.683, 30.864 36.143 C 30.742 33.787, 30.681 33.745, 30.294 35.750 C 30.056 36.987, 29.555 37.993, 29.180 37.985 C 27.889 37.956, 26.352 36.494, 25.669 34.646 C 25.255 33.528, 24.391 33.020, 23.492 33.365 C 22.671 33.680, 22 33.462, 22 32.881 C 22 32.202, 23.431 32.066, 26 32.500 C 29.530 33.096, 30 32.947, 30 31.227 C 30 29.687, 30.525 29.378, 32.500 29.755 C 33.875 30.018, 35 30.008, 35 29.733 C 35 28.976, 30.850 28.448, 27.750 28.811 M 26.500 31 C 26.160 31.550, 26.584 32, 27.441 32 C 28.298 32, 29 31.550, 29 31 C 29 30.450, 28.577 30, 28.059 30 C 27.541 30, 26.840 30.450, 26.500 31 M 48.106 31.801 C 47.354 33.207, 47.452 34.231, 48.471 35.612 C 49.514 37.024, 50.156 37.214, 51.017 36.365 C 52.425 34.979, 51.946 30.803, 50.318 30.268 C 49.667 30.054, 48.672 30.744, 48.106 31.801 M 13.455 35.859 C 13.808 36.970, 13.375 38.274, 12.378 39.101 C 10.888 40.338, 10.787 40.247, 11.423 38.242 C 12.467 34.952, 11.490 35.505, 9.099 39.557 C 6.462 44.026, 6.421 46.275, 9.033 43.139 C 10.115 41.841, 11 41.223, 11 41.767 C 11 42.310, 10.314 43.325, 9.475 44.021 C 8.113 45.151, 8.131 45.487, 9.639 47.154 C 11.267 48.952, 11.414 48.870, 13.680 44.881 C 15.486 41.701, 15.767 40.424, 14.893 39.371 C 14.267 38.617, 14.164 38, 14.665 38 C 15.165 38, 15.642 37.100, 15.725 36 C 15.814 34.819, 15.259 34, 14.370 34 C 13.358 34, 13.059 34.609, 13.455 35.859 M 22.750 36.823 C 20.604 40.485, 20.502 43, 22.500 43 C 23.325 43, 24 42.325, 24 41.500 C 24 40.675, 23.475 40, 22.833 40 C 22.192 40, 21.956 39.711, 22.309 39.357 C 22.663 39.004, 23.618 39.268, 24.432 39.944 C 25.948 41.202, 28 40.625, 28 38.941 C 28 38.423, 27.356 38, 26.570 38 C 25.783 38, 24.995 37.063, 24.820 35.918 C 24.531 34.041, 24.329 34.129, 22.750 36.823 M 7.083 38.583 C 4.260 43.368, 5.094 44.202, 8 39.500 C 9.225 37.517, 10.008 35.674, 9.738 35.405 C 9.468 35.135, 8.274 36.566, 7.083 38.583 M 17 35.500 C 17 35.775, 17.225 36, 17.500 36 C 17.775 36, 18 35.775, 18 35.500 C 18 35.225, 17.775 35, 17.500 35 C 17.225 35, 17 35.225, 17 35.500 M 21 35.500 C 21 35.775, 21.225 36, 21.500 36 C 21.775 36, 22 35.775, 22 35.500 C 22 35.225, 21.775 35, 21.500 35 C 21.225 35, 21 35.225, 21 35.500 M 37.333 36.667 C 37.700 37.033, 38.300 37.033, 38.667 36.667 C 39.033 36.300, 38.733 36, 38 36 C 37.267 36, 36.967 36.300, 37.333 36.667 M 35.009 40.490 C 34.126 41.553, 34.304 42.093, 35.804 42.895 C 37.850 43.990, 39 43.466, 39 41.440 C 39 39.581, 36.297 38.937, 35.009 40.490 M 35 41.500 C 35 41.775, 35.225 42, 35.500 42 C 35.775 42, 36 41.775, 36 41.500 C 36 41.225, 35.775 41, 35.500 41 C 35.225 41, 35 41.225, 35 41.500 M 23.750 43.392 C 22.788 44.123, 22 45.164, 22 45.705 C 22 46.645, 25.196 50.006, 26.079 49.995 C 26.310 49.992, 26.602 48.192, 26.727 45.995 C 26.852 43.798, 26.627 42.014, 26.227 42.032 C 25.827 42.049, 24.712 42.661, 23.750 43.392 M 37.822 44.339 C 35.866 45.827, 36.795 48.015, 39 47.114 C 40.567 46.473, 41.675 42.976, 40.294 43.032 C 39.857 43.049, 38.745 43.638, 37.822 44.339 M 6.946 47.372 C 8.842 49.367, 10.587 51, 10.824 51 C 11.788 51, 6.224 44.578, 4.914 44.177 C 4.136 43.939, 5.051 45.377, 6.946 47.372 M 19.543 48.931 C 18.803 50.128, 20.684 51.313, 22.016 50.490 C 23.135 49.799, 22.400 48, 21 48 C 20.515 48, 19.859 48.419, 19.543 48.931 M 37.036 49.457 C 36.278 50.370, 36.180 51, 36.794 51 C 37.366 51, 38.060 50.438, 38.338 49.750 C 38.741 48.750, 38.858 48.750, 38.921 49.750 C 38.964 50.438, 39.712 51, 40.583 51 C 42.545 51, 41.896 48.609, 39.825 48.207 C 38.995 48.046, 37.740 48.609, 37.036 49.457"/>
</svg>
