<svg xmlns="http://www.w3.org/2000/svg" width="64" height="64" viewBox="0 0 64 64">
  <path fill="currentColor" fill-rule="evenodd" clip-rule="evenodd" d="M 37.771 11 C 35.715 15.812, 33.203 17.751, 28.500 18.156 L 24.500 18.500 24 13.500 L 23.500 8.500 21.725 11 C 20.749 12.375, 19.679 15.188, 19.348 17.250 C 18.707 21.233, 18.117 21.717, 16.217 19.817 C 15.566 19.166, 14.733 18.934, 14.365 19.301 C 13.998 19.669, 15.340 22.632, 17.349 25.886 C 19.357 29.139, 21 32.466, 21 33.278 C 21 34.091, 21.670 35.312, 22.490 35.992 C 23.780 37.062, 23.633 37.501, 21.394 39.262 C 19.972 40.381, 17.705 41.417, 16.356 41.565 C 12.885 41.946, 10.998 43.822, 11.015 46.872 C 11.026 48.694, 11.290 49.090, 11.877 48.165 C 12.520 47.151, 12.853 47.331, 13.268 48.915 C 13.971 51.606, 16 51.625, 16 48.941 C 16 47.665, 15.570 47.148, 14.870 47.580 C 14.185 48.004, 13.923 47.732, 14.204 46.889 C 14.458 46.125, 15.304 45.500, 16.083 45.500 C 16.999 45.500, 17.383 46.335, 17.168 47.861 C 16.753 50.821, 19.007 50.321, 20.631 47.093 C 21.253 45.856, 23.278 43.509, 25.131 41.876 C 27.931 39.409, 28.120 39.012, 26.250 39.522 C 24.999 39.863, 24 39.687, 24 39.126 C 24 37.162, 25.822 37.035, 28.056 38.845 L 30.321 40.679 26.411 44.349 L 22.500 48.020 24.861 50.010 C 27.347 52.106, 29 52.565, 29 51.161 C 29 50.699, 27.829 49.788, 26.398 49.136 C 24.215 48.141, 24 47.705, 25.060 46.428 C 25.968 45.333, 26.524 45.230, 27.037 46.059 C 27.506 46.818, 27.966 46.864, 28.381 46.192 C 28.728 45.630, 28.447 44.963, 27.756 44.709 C 27.065 44.455, 27.738 43.917, 29.250 43.515 C 30.762 43.112, 32 42.355, 32 41.833 C 32 41.310, 32.403 41.131, 32.895 41.435 C 33.388 41.740, 34.013 41.408, 34.285 40.699 C 34.581 39.928, 33.959 39.347, 32.741 39.255 C 30.087 39.056, 27.893 37, 30.334 37 C 31.287 37, 33.409 35.628, 35.049 33.950 C 37.951 30.982, 38.629 30.932, 41.822 33.455 C 45.266 36.178, 53.483 46, 52.316 46 C 51.812 46, 50.885 45.485, 50.256 44.856 C 49.397 43.997, 49.240 44.309, 49.625 46.106 C 50.069 48.178, 49.987 48.264, 49.019 46.750 C 48.404 45.787, 47.239 45, 46.431 45 C 45.422 45, 45.123 44.295, 45.475 42.750 C 46.074 40.121, 44.370 37.570, 41.380 36.621 C 39.577 36.048, 39.333 36.291, 39.713 38.279 C 40.050 40.043, 39.533 40.892, 37.579 41.782 C 36.045 42.481, 35 43.776, 35 44.979 C 35 46.430, 34.342 47, 32.667 47 C 29.657 47, 28.731 47.971, 30.131 49.658 C 31.725 51.578, 29.438 54.018, 26.128 53.930 C 23.736 53.866, 23.679 53.778, 25.500 52.947 C 27.325 52.114, 27.288 52.055, 25.078 52.267 C 23.746 52.395, 22.471 53.063, 22.245 53.750 C 21.534 55.908, 28.795 55.269, 31.278 52.955 C 33.118 51.242, 33.237 50.765, 32.016 50.010 C 31.214 49.514, 30.863 48.804, 31.236 48.431 C 31.920 47.747, 32.635 48, 36.777 50.395 C 38.778 51.552, 38.869 51.864, 37.527 52.978 C 35.019 55.059, 35.769 56, 39.933 56 C 43.657 56, 43.862 55.840, 43.781 52.996 C 43.734 51.344, 43.113 49.509, 42.402 48.919 C 41.473 48.148, 41.375 47.143, 42.054 45.357 C 42.679 43.714, 42.633 42.183, 41.919 40.849 C 40.464 38.130, 41.651 37.158, 43.479 39.573 C 45.223 41.879, 45.329 42.679, 44 43.500 C 42.534 44.406, 42.781 47.573, 44.423 48.936 C 45.576 49.893, 45.912 49.679, 46.198 47.808 C 46.537 45.583, 46.609 45.607, 48.200 48.500 L 49.850 51.500 50.862 49 C 51.418 47.625, 51.902 47.063, 51.937 47.750 C 51.971 48.438, 52.450 49, 53 49 C 54.612 49, 54.147 43.993, 52.474 43.352 C 51.298 42.900, 51.212 42.450, 52.097 41.383 C 52.728 40.622, 54.116 40, 55.181 40 C 56.247 40, 56.840 39.550, 56.500 39 C 55.366 37.166, 51.955 37.950, 51.063 40.250 C 50.232 42.394, 50.116 42.328, 48.632 38.871 C 47.726 36.760, 45.593 34.368, 43.537 33.154 C 39.748 30.919, 39.118 29.552, 41.462 28.653 C 42.977 28.071, 49.551 16, 48.352 16 C 47.980 16, 45.622 17.204, 43.112 18.675 C 40.602 20.146, 39.088 21.529, 39.748 21.749 C 40.622 22.041, 40.513 22.814, 39.348 24.592 C 37.886 26.823, 37.886 26.981, 39.342 26.422 C 40.219 26.086, 40.838 25.435, 40.718 24.976 C 40.598 24.517, 41.400 23.398, 42.500 22.489 C 44.160 21.118, 44.203 20.930, 42.750 21.387 C 40.009 22.249, 40.697 21.208, 43.996 19.502 L 46.993 17.953 44.895 21.726 C 42.394 26.224, 40.045 29, 38.739 29 C 38.216 29, 36.896 30.134, 35.806 31.520 C 33.043 35.032, 28.533 37.172, 25.499 36.410 C 22.630 35.690, 21.068 33.999, 23.745 34.511 C 24.710 34.696, 25.725 34.933, 26 35.039 C 27.403 35.577, 30.702 34.634, 32.250 33.252 C 35.176 30.640, 34.231 30.165, 29.497 31.867 C 24.779 33.564, 22.026 32.917, 21.247 29.929 C 20.997 28.970, 21.342 29.076, 22.297 30.250 C 23.815 32.116, 27 32.646, 27 31.031 C 27 30.499, 26.258 30.348, 25.350 30.696 C 23.991 31.217, 23.816 30.870, 24.354 28.726 C 24.713 27.294, 24.561 25.847, 24.015 25.509 C 23.443 25.156, 23.277 25.557, 23.623 26.459 C 24.058 27.595, 23.781 27.853, 22.611 27.404 C 21.725 27.064, 21 26.468, 21 26.080 C 21 24.826, 26.432 20.245, 28.749 19.545 C 30.537 19.005, 31.188 19.365, 31.923 21.296 C 33.456 25.330, 37.706 25.457, 38.693 21.500 C 38.830 20.950, 39.489 18.621, 40.158 16.325 C 41.031 13.326, 41.076 11.496, 40.320 9.825 C 39.280 7.531, 39.247 7.546, 37.771 11 M 38.697 12.393 C 38.288 13.434, 38.189 14.522, 38.476 14.810 C 39.389 15.722, 40.191 14.227, 39.809 12.328 C 39.459 10.588, 39.405 10.591, 38.697 12.393 M 21 14.500 C 21 14.775, 21.225 15, 21.500 15 C 21.775 15, 22 14.775, 22 14.500 C 22 14.225, 21.775 14, 21.500 14 C 21.225 14, 21 14.225, 21 14.500 M 20.528 16.954 C 20.204 17.479, 20.236 19.092, 20.599 20.539 C 21.151 22.738, 21.479 22.949, 22.600 21.829 C 23.366 21.063, 23.689 19.526, 23.354 18.244 C 22.738 15.892, 21.527 15.338, 20.528 16.954 M 34.534 17.963 C 32.852 19.821, 32.991 23, 34.753 23 C 35.546 23, 39 17.791, 39 16.596 C 39 15.267, 36.197 16.125, 34.534 17.963 M 51.574 25.475 C 48.223 29.564, 48.069 30, 49.968 30 C 51.789 30, 51.921 30.279, 50.954 32.086 C 49.222 35.323, 50.358 35.280, 53.510 31.990 C 55.751 29.650, 56.007 29, 54.687 29 C 52.611 29, 52.602 28.671, 54.574 24.857 C 55.439 23.184, 55.953 21.620, 55.715 21.382 C 55.477 21.144, 53.614 22.986, 51.574 25.475 M 17 22.996 C 17 24.209, 19.805 25.529, 20.629 24.705 C 20.927 24.406, 20.233 23.660, 19.086 23.046 C 17.639 22.272, 17 22.257, 17 22.996 M 19 27 C 19 27.733, 19.300 28.033, 19.667 27.667 C 20.033 27.300, 20.033 26.700, 19.667 26.333 C 19.300 25.967, 19 26.267, 19 27 M 29.750 27.080 C 27.400 28.449, 27.533 30, 30 30 C 31.100 30, 32 29.812, 32 29.582 C 32 29.352, 32.273 28.452, 32.607 27.582 C 33.299 25.777, 32.291 25.600, 29.750 27.080 M 9.359 31.842 C 10.932 33.490, 11.932 35.301, 11.581 35.869 C 11.231 36.436, 11.827 37.372, 12.906 37.950 C 15.730 39.461, 16.448 39.245, 14.880 37.356 C 13.661 35.887, 13.771 35.793, 15.908 36.471 L 18.300 37.230 16.103 34.145 C 13.558 30.570, 13.466 30.507, 9.500 29.562 L 6.500 28.847 9.359 31.842 M 19.559 41.532 C 18.491 42.339, 16.859 43, 15.931 43 C 15.004 43, 13.664 43.700, 12.954 44.555 C 11.802 45.943, 11.962 45.974, 14.441 44.845 C 16.882 43.733, 17.388 43.810, 18.610 45.481 C 19.826 47.144, 20 47.172, 20 45.700 C 20 44.774, 20.900 43.455, 22 42.768 C 23.100 42.081, 24 41.177, 24 40.759 C 24 39.537, 21.658 39.944, 19.559 41.532 M 37.200 43.200 C 35.542 44.858, 35.680 49, 37.393 49 C 39.082 49, 40.151 51.443, 39.362 53.500 C 38.959 54.550, 39.438 55, 40.960 55 C 42.753 55, 43.014 54.605, 42.445 52.750 C 42.066 51.513, 41.359 50.002, 40.874 49.393 C 40.389 48.784, 40.276 46.872, 40.621 45.143 C 41.091 42.795, 40.889 42, 39.825 42 C 39.041 42, 37.860 42.540, 37.200 43.200 M 44 46 C 44 46.733, 44.300 47.033, 44.667 46.667 C 45.033 46.300, 45.033 45.700, 44.667 45.333 C 44.300 44.967, 44 45.267, 44 46 M 37 54.500 C 37 54.775, 37.225 55, 37.500 55 C 37.775 55, 38 54.775, 38 54.500 C 38 54.225, 37.775 54, 37.500 54 C 37.225 54, 37 54.225, 37 54.500"/>
</svg>
