<svg xmlns="http://www.w3.org/2000/svg" width="64" height="64" viewBox="0 0 64 64">
  <path fill="currentColor" fill-rule="evenodd" clip-rule="evenodd" d="M 32.239 9.034 C 29.438 10.279, 27.615 11.881, 26.919 13.712 C 26.337 15.243, 25.158 17.272, 24.300 18.221 C 23.266 19.364, 22.938 20.938, 23.327 22.886 C 24.061 26.554, 21.847 28.948, 19.513 27.011 C 18.695 26.332, 17.346 26.037, 16.515 26.356 C 15.590 26.711, 14.398 26.011, 13.442 24.552 C 12.583 23.241, 11.145 21.886, 10.246 21.541 C 8.847 21.004, 8.870 21.198, 10.404 22.894 C 11.390 23.983, 11.900 25.352, 11.539 25.937 C 11.176 26.524, 11.693 27.077, 12.691 27.171 C 13.686 27.265, 15.175 27.442, 16 27.565 C 16.825 27.687, 17.893 27.835, 18.372 27.894 C 18.852 27.952, 18.685 28.675, 18 29.500 C 16.281 31.571, 17.880 31.370, 21.714 29.033 C 23.943 27.674, 25.139 27.416, 25.618 28.191 C 25.998 28.806, 25.902 29.058, 25.405 28.750 C 24.907 28.443, 24.493 30.530, 24.485 33.389 C 24.474 37.239, 23.891 39.324, 22.235 41.428 C 19.622 44.750, 19.421 46, 21.500 46 C 22.414 46, 23 46.932, 23 48.385 C 23 49.861, 24.009 51.431, 25.648 52.505 C 28.219 54.190, 28.281 54.182, 27.771 52.231 C 27.482 51.126, 27.609 49.633, 28.054 48.913 C 28.629 47.982, 29.053 48.361, 29.521 50.229 C 30.201 52.935, 33.610 56.724, 34.534 55.799 C 34.821 55.512, 34.654 54.202, 34.163 52.889 C 33.671 51.575, 33.592 49.600, 33.987 48.500 C 34.679 46.570, 34.729 46.579, 35.419 48.750 C 36.244 51.344, 38 51.775, 38 49.383 C 38 48.239, 38.607 47.925, 40.079 48.310 C 41.730 48.742, 42.014 48.509, 41.459 47.177 C 40.104 43.927, 38 36.666, 38.321 36.346 C 38.499 36.167, 39.606 36.916, 40.781 38.011 C 41.955 39.105, 43.160 40, 43.458 40 C 43.756 40, 44 38.664, 44 37.031 C 44 35.076, 44.427 34.221, 45.250 34.527 C 45.938 34.782, 47.850 34.598, 49.500 34.118 C 52.160 33.345, 52.274 33.168, 50.500 32.549 C 46.792 31.257, 44.115 29.506, 44.308 28.500 C 44.414 27.950, 46.075 27.500, 48 27.500 C 51.608 27.500, 57.270 25.093, 53.809 25.030 C 52.879 25.014, 51.866 25.408, 51.558 25.906 C 50.832 27.081, 46.018 24.871, 46.008 23.357 C 46.004 22.728, 46.723 21.937, 47.606 21.598 C 48.733 21.165, 49.031 20.260, 48.605 18.564 C 48.142 16.718, 48.621 15.656, 50.634 14.073 C 53.607 11.735, 53.280 11.460, 49.547 13.161 C 47.727 13.990, 47 15.097, 47 17.038 C 47 18.532, 46.325 20.315, 45.500 21 C 44.675 21.685, 44 23.063, 44 24.063 C 44 25.064, 43.522 26.178, 42.937 26.539 C 41.465 27.449, 38.015 24.125, 38.667 22.426 C 38.960 21.663, 37.836 19.318, 36.171 17.216 L 33.142 13.392 35.644 10.196 C 37.019 8.438, 37.775 7.032, 37.322 7.071 C 36.870 7.109, 34.583 7.993, 32.239 9.034 M 31 11.290 C 29.625 11.983, 28.362 13.504, 28.194 14.671 C 28.026 15.837, 27.013 17.583, 25.944 18.551 C 24.875 19.518, 24 20.780, 24 21.355 C 24 21.996, 24.464 21.936, 25.200 21.200 C 27.101 19.299, 30.747 19.801, 32.423 22.194 C 33.815 24.181, 33.801 24.563, 32.269 26.255 C 31.339 27.283, 29.803 27.920, 28.854 27.672 C 26.504 27.058, 25.595 29.895, 27.476 31.973 C 29.439 34.143, 29.457 35.624, 27.500 34 C 26.238 32.953, 25.999 33.132, 25.996 35.128 C 25.994 36.432, 25.162 38.863, 24.146 40.528 C 22.682 42.929, 22.557 43.797, 23.543 44.718 C 24.227 45.357, 25.060 45.607, 25.393 45.273 C 26.339 44.327, 26.107 45.932, 24.997 48.005 C 24.446 49.036, 24.380 50.117, 24.851 50.408 C 25.322 50.699, 26.242 49.765, 26.894 48.333 C 28.034 45.832, 28.138 45.803, 29.509 47.614 C 30.294 48.651, 30.982 50.175, 31.038 51 C 31.108 52.025, 31.416 51.867, 32.012 50.500 C 32.491 49.400, 32.688 46.475, 32.451 44 C 32.100 40.343, 32.188 40.011, 32.918 42.229 C 33.412 43.731, 34.488 45.631, 35.309 46.452 C 36.632 47.775, 36.946 47.770, 38.078 46.406 C 39.082 45.197, 39.103 44.174, 38.177 41.613 C 37.530 39.823, 37 36.901, 37 35.120 C 37 32.796, 36.647 32.094, 35.750 32.633 C 34.901 33.143, 34.940 32.842, 35.872 31.692 C 37.269 29.970, 38.530 29.334, 37.616 30.812 C 37.340 31.259, 38.175 32.860, 39.472 34.369 C 41.741 37.010, 41.854 37.035, 42.483 35.054 C 42.995 33.442, 43.717 33.114, 45.818 33.542 L 48.500 34.088 46 32.294 C 44.625 31.307, 42.446 29.467, 41.158 28.204 C 39.292 26.374, 38.526 26.149, 37.385 27.095 C 36.207 28.073, 36.078 27.949, 36.654 26.391 C 37.096 25.198, 36.218 25.699, 34.276 27.750 C 32.583 29.537, 30.840 31, 30.403 31 C 29.965 31, 31.046 29.516, 32.804 27.702 C 34.562 25.889, 36 23.864, 36 23.202 C 36 22.541, 36.520 22, 37.155 22 C 37.846 22, 37.645 21.265, 36.655 20.171 C 35.745 19.165, 35 17.838, 35 17.221 C 35 16.604, 34.212 15.652, 33.250 15.105 C 31.769 14.264, 31.693 13.795, 32.758 12.055 C 34.231 9.651, 34.242 9.655, 31 11.290 M 10.087 12.234 C 10.959 12.930, 12.213 14.512, 12.872 15.750 C 13.531 16.988, 14.730 18, 15.535 18 C 16.389 18, 17 18.942, 17 20.259 C 17 21.502, 17.900 23.081, 19 23.768 C 20.250 24.549, 21 24.627, 21 23.977 C 21 23.405, 20.325 22.678, 19.500 22.362 C 18.675 22.045, 18 20.709, 18 19.393 C 18 17.870, 17.421 17, 16.406 17 C 15.530 17, 14.592 16.155, 14.322 15.122 C 14.052 14.089, 12.631 12.732, 11.165 12.106 C 8.978 11.172, 8.785 11.195, 10.087 12.234 M 33.515 19.281 C 34.481 20.811, 35.522 21.811, 35.830 21.503 C 36.137 21.196, 35.347 19.944, 34.074 18.722 L 31.759 16.500 33.515 19.281 M 25.476 23.075 C 25.114 24.217, 25.083 25.417, 25.409 25.742 C 25.734 26.067, 26 25.583, 26 24.667 C 26 23.750, 26.498 23, 27.107 23 C 27.716 23, 27.948 23.692, 27.624 24.538 C 26.746 26.825, 29.877 27.564, 31.828 25.529 C 33.402 23.887, 33.361 23.827, 31.132 24.498 C 29.365 25.029, 28.889 24.866, 29.257 23.855 C 29.528 23.110, 30.290 22.624, 30.949 22.775 C 31.609 22.926, 31.864 22.588, 31.515 22.025 C 31.167 21.461, 29.814 21, 28.508 21 C 26.984 21, 25.899 21.743, 25.476 23.075 M 27 29.500 C 27 29.775, 27.225 30, 27.500 30 C 27.775 30, 28 29.775, 28 29.500 C 28 29.225, 27.775 29, 27.500 29 C 27.225 29, 27 29.225, 27 29.500 M 13.474 32.043 C 12.918 32.941, 15.792 33.474, 18.877 33.046 C 19.877 32.907, 20.077 33.558, 19.608 35.427 C 19.230 36.930, 19.386 38, 19.981 38 C 20.541 38, 21 37.564, 21 37.031 C 21 36.499, 21.675 36.322, 22.500 36.638 C 23.325 36.955, 24 36.716, 24 36.107 C 24 35.498, 23.355 35, 22.567 35 C 21.779 35, 20.884 34.212, 20.577 33.250 C 19.969 31.342, 14.483 30.410, 13.474 32.043 M 10.250 37.648 C 8.463 38.529, 7 39.669, 7 40.182 C 7 40.694, 8 40.413, 9.223 39.557 C 12.191 37.477, 13.339 37.594, 12.733 39.914 C 12.394 41.211, 12.840 41.987, 14.120 42.321 C 15.358 42.645, 15.798 43.363, 15.397 44.407 C 14.427 46.935, 15.676 46.264, 17.991 43.013 L 20.117 40.027 17.178 40.614 C 14.446 41.161, 14.274 41.019, 14.736 38.601 C 15.009 37.171, 14.843 36.010, 14.367 36.023 C 13.890 36.035, 12.038 36.767, 10.250 37.648 M 48.702 37.631 C 48.355 37.979, 48.520 39.104, 49.070 40.131 C 49.890 41.663, 49.714 42, 48.094 42 C 47.007 42, 45.826 42.472, 45.470 43.049 C 45.027 43.765, 44.376 43.727, 43.411 42.926 C 42.584 42.240, 42 42.169, 42 42.755 C 42 43.305, 42.748 44.373, 43.663 45.128 C 44.959 46.198, 45.418 46.225, 45.746 45.250 C 45.977 44.563, 47.488 44, 49.102 44 C 51.734 44, 51.973 43.741, 51.411 41.500 C 50.715 38.728, 51.177 38.489, 54.151 40.081 C 55.262 40.676, 56.400 40.934, 56.679 40.655 C 57.218 40.116, 51.709 37, 50.216 37 C 49.731 37, 49.049 37.284, 48.702 37.631 M 25.964 41.164 C 24.819 43.397, 24.846 43.424, 26.574 41.774 C 27.568 40.824, 28.107 39.773, 27.771 39.438 C 27.436 39.103, 26.623 39.880, 25.964 41.164"/>
</svg>
