<svg xmlns="http://www.w3.org/2000/svg" width="64" height="64" viewBox="0 0 64 64">
  <path fill="currentColor" fill-rule="evenodd" clip-rule="evenodd" d="M 26.096 7.265 C 21.029 9.869, 19.082 15.100, 18.814 26.837 C 18.732 30.383, 18.280 31.371, 16.333 32.258 C 15.024 32.855, 13.697 34.358, 13.386 35.599 C 13.074 36.840, 12.157 38.110, 11.346 38.421 C 10.536 38.731, 10.181 39.484, 10.558 40.093 C 11.006 40.819, 13.071 40.972, 16.558 40.536 C 20.694 40.019, 22.449 40.248, 24.458 41.565 C 26.429 42.856, 28.046 43.082, 31.271 42.518 C 33.597 42.111, 37.971 41.616, 40.990 41.418 C 44.010 41.220, 46.635 40.595, 46.824 40.029 C 47.012 39.463, 47.992 39, 49.002 39 C 51.479 39, 54 37.971, 54 36.960 C 54 36.506, 53.129 35.858, 52.063 35.520 C 50.998 35.182, 49.986 33.948, 49.813 32.778 C 49.641 31.608, 48.181 29.923, 46.569 29.032 C 43.552 27.367, 41.996 25, 43.917 25 C 45.449 25, 45.264 21.464, 43.662 20.134 C 42.926 19.524, 41.793 17.252, 41.144 15.086 C 40.495 12.920, 38.587 9.989, 36.905 8.574 C 33.582 5.777, 29.867 5.327, 26.096 7.265 M 28.284 7.796 C 24.918 8.304, 21.025 13.555, 20.848 17.827 C 20.765 19.847, 20.592 23.862, 20.465 26.750 C 20.334 29.735, 20.666 32, 21.234 32 C 21.783 32, 22.016 30.864, 21.751 29.476 C 21.485 28.088, 21.688 26.693, 22.200 26.376 C 22.734 26.046, 22.997 27.447, 22.816 29.650 C 22.521 33.240, 22.286 33.500, 19.333 33.500 C 17.592 33.500, 15.808 33.859, 15.369 34.298 C 13.971 35.695, 16.596 38.489, 19.601 38.802 C 21.195 38.968, 23.957 39.774, 25.739 40.593 C 28.437 41.834, 29.689 41.877, 33.239 40.851 C 35.582 40.174, 39.413 39.746, 41.750 39.900 C 44.322 40.069, 46 39.750, 46 39.090 C 46 38.491, 45.311 38, 44.469 38 C 43.626 38, 42.678 37.325, 42.362 36.500 C 42.045 35.675, 41.229 35, 40.548 35 C 38.571 35, 35.785 31.319, 36.252 29.324 C 36.605 27.820, 36.809 27.938, 37.413 30 C 37.816 31.375, 40.084 33.738, 42.453 35.250 C 46.709 37.968, 52 38.938, 52 37 C 52 36.450, 51.325 36, 50.500 36 C 49.675 36, 49 35.155, 49 34.122 C 49 31.704, 46.469 29.606, 44.475 30.371 C 42.824 31.005, 42.509 30.434, 41.587 25.128 C 41.080 22.212, 41.204 21.924, 42.501 23.001 C 43.337 23.695, 44 23.803, 44 23.245 C 44 22.695, 43.328 21.687, 42.507 21.006 C 41.686 20.325, 40.544 18.021, 39.970 15.888 C 38.320 9.761, 34.195 6.905, 28.284 7.796 M 33.473 11.044 C 32.603 12.451, 35.072 15.328, 36.190 14.210 C 37.178 13.222, 36.231 10, 34.952 10 C 34.493 10, 33.828 10.470, 33.473 11.044 M 34 12 C 34 12.550, 34.477 13, 35.059 13 C 35.641 13, 35.840 12.550, 35.500 12 C 35.160 11.450, 34.684 11, 34.441 11 C 34.198 11, 34 11.450, 34 12 M 22.380 15.452 C 22.074 16.251, 22.144 17.424, 22.536 18.059 C 23.057 18.901, 23.482 18.847, 24.110 17.857 C 25.289 15.996, 25.216 14, 23.969 14 C 23.401 14, 22.686 14.653, 22.380 15.452 M 28.180 16.250 C 28.356 17.488, 28.950 18.500, 29.500 18.500 C 30.050 18.500, 30.644 17.488, 30.820 16.250 C 31.039 14.702, 30.628 14, 29.500 14 C 28.372 14, 27.961 14.702, 28.180 16.250 M 36.583 18.866 C 36.152 19.563, 36.070 20.403, 36.400 20.733 C 37.295 21.628, 38.271 20.312, 37.787 18.862 C 37.449 17.846, 37.213 17.846, 36.583 18.866 M 38.583 22.866 C 38.152 23.563, 38.070 24.403, 38.400 24.733 C 39.295 25.628, 40.271 24.312, 39.787 22.862 C 39.449 21.846, 39.213 21.846, 38.583 22.866 M 27 27.378 C 27 28.685, 27.615 30.266, 28.367 30.890 C 29.405 31.751, 30.027 31.672, 30.950 30.560 C 31.618 29.755, 31.955 28.287, 31.699 27.298 C 31.345 25.934, 31.204 26.063, 31.116 27.833 C 31.046 29.238, 30.503 29.990, 29.750 29.723 C 29.063 29.479, 28.607 28.317, 28.738 27.140 C 28.869 25.963, 28.532 25, 27.988 25 C 27.445 25, 27 26.070, 27 27.378 M 43 29.500 C 43 29.775, 43.225 30, 43.500 30 C 43.775 30, 44 29.775, 44 29.500 C 44 29.225, 43.775 29, 43.500 29 C 43.225 29, 43 29.225, 43 29.500 M 45.500 33 C 45.840 33.550, 46.316 34, 46.559 34 C 46.802 34, 47 33.550, 47 33 C 47 32.450, 46.523 32, 45.941 32 C 45.359 32, 45.160 32.450, 45.500 33 M 16.405 35.155 C 15.962 35.870, 16.130 36.038, 16.845 35.595 C 17.480 35.203, 18 34.684, 18 34.441 C 18 33.607, 17.117 34.002, 16.405 35.155 M 25 37 C 25 37.550, 25.477 38, 26.059 38 C 26.641 38, 26.840 37.550, 26.500 37 C 26.160 36.450, 25.684 36, 25.441 36 C 25.198 36, 25 36.450, 25 37 M 32.657 37.250 C 33.287 38.276, 36.759 38.199, 37.410 37.145 C 37.701 36.675, 36.647 36.337, 35.068 36.395 C 33.489 36.453, 32.404 36.837, 32.657 37.250 M 13 39 C 11.793 39.780, 11.951 39.972, 13.809 39.985 C 15.097 39.993, 15.845 39.558, 15.500 39 C 14.757 37.798, 14.861 37.798, 13 39 M 48.378 40.802 C 48.762 41.424, 47.888 42.054, 46.267 42.323 C 44.172 42.670, 44.350 42.747, 47 42.641 C 50.340 42.506, 51.507 41.002, 48.936 40.145 C 48.268 39.923, 48.017 40.218, 48.378 40.802 M 18 42 C 18 42.550, 18.900 43, 20 43 C 21.100 43, 22 42.550, 22 42 C 22 41.450, 21.100 41, 20 41 C 18.900 41, 18 41.450, 18 42 M 14.667 56.667 C 13.478 57.856, 13.962 59.229, 15.378 58.685 C 16.136 58.394, 17.261 58.661, 17.878 59.278 C 18.495 59.895, 19.007 59.972, 19.015 59.450 C 19.024 58.928, 19.417 59.111, 19.890 59.857 C 20.438 60.721, 20.981 60.840, 21.386 60.185 C 21.735 59.620, 20.597 58.447, 18.857 57.578 C 15.181 55.745, 15.516 55.818, 14.667 56.667 M 11 59.500 C 11 60.417, 11.484 61.005, 12.075 60.808 C 12.666 60.611, 13.150 60.023, 13.150 59.500 C 13.150 58.977, 12.666 58.389, 12.075 58.192 C 11.484 57.995, 11 58.583, 11 59.500 M 15.333 60.667 C 15.700 61.033, 16.300 61.033, 16.667 60.667 C 17.033 60.300, 16.733 60, 16 60 C 15.267 60, 14.967 60.300, 15.333 60.667 M 32.269 60.693 C 33.242 60.947, 34.592 60.930, 35.269 60.656 C 35.946 60.382, 35.150 60.175, 33.500 60.195 C 31.850 60.215, 31.296 60.439, 32.269 60.693"/>
</svg>
